<svg width="350" height="310" viewBox="0 0 350 310" fill="none" xmlns="http://www.w3.org/2000/svg">
<g clip-path="url(#clip0_6879_2303)">
<path d="M8.2296 14L7.6376 12.256H3.3496L2.7576 14H0.405596L4.4056 2.8H6.5816L10.5816 14H8.2296ZM4.0696 10.176H6.9176L5.5096 6.048H5.4776L4.0696 10.176ZM10.6527 8.4C10.6527 4.864 12.6047 2.56 15.5967 2.56C17.9647 2.56 19.8047 4.192 20.0607 6.56L17.7407 6.944C17.5007 5.52 16.7327 4.72 15.5967 4.72C13.9807 4.72 13.0207 6.096 13.0207 8.4C13.0207 10.704 13.9807 12.08 15.5967 12.08C16.7967 12.08 17.5647 11.232 17.7727 9.68L20.0927 10.08C19.8047 12.592 18.0447 14.24 15.5967 14.24C12.6047 14.24 10.6527 11.936 10.6527 8.4ZM23.7113 14V4.976H20.4633V2.8H29.3113V4.976H26.0793V14H23.7113ZM30.7927 14V2.8H33.1607V14H30.7927ZM38.2345 14L34.2025 2.8H36.6985L39.4185 10.688H39.4505L42.1545 2.8H44.6665L40.6185 14H38.2345ZM45.6677 14V2.8H52.8837V4.976H48.0357V7.248H52.4517V9.328H48.0357V11.824H52.8997V14H45.6677ZM57.9146 10.304L60.2346 9.808C60.5386 11.472 61.1946 12.112 62.6826 12.112C63.7866 12.112 64.4106 11.712 64.4106 11.008C64.4106 10.224 63.8826 9.84 62.0106 9.2C60.7146 8.768 59.7866 8.288 59.2426 7.76C58.6986 7.232 58.4266 6.544 58.4266 5.728C58.4266 3.856 59.9946 2.56 62.2186 2.56C64.4106 2.56 66.1226 3.888 66.4746 5.856L64.1706 6.352C63.8666 5.216 63.2426 4.688 62.2186 4.688C61.3386 4.688 60.7626 5.088 60.7626 5.712C60.7626 6.288 61.2426 6.608 62.9066 7.168C64.2986 7.648 65.2906 8.176 65.8826 8.768C66.4746 9.36 66.7786 10.096 66.7786 11.008C66.7786 12.944 65.0986 14.24 62.6506 14.24C59.9786 14.24 58.3146 12.864 57.9146 10.304ZM68.1033 10.304V2.8H70.4713V10.144C70.4713 11.44 71.1113 12.08 72.4073 12.08C73.7033 12.08 74.3433 11.456 74.3433 10.176V2.8H76.7113V10.304C76.7113 12.784 75.1113 14.24 72.4073 14.24C69.7033 14.24 68.1033 12.784 68.1033 10.304ZM78.8396 14V2.8H83.7036C85.6396 2.8 87.0316 4.064 87.0316 5.808C87.0316 6.72 86.5996 7.472 85.8956 7.904V7.936C86.8556 8.384 87.4476 9.344 87.4476 10.512C87.4476 12.864 86.0556 14 83.1916 14H78.8396ZM81.2076 7.264H83.3676C84.2156 7.264 84.6796 6.848 84.6796 6.08C84.6796 5.328 84.2156 4.912 83.3676 4.912H81.2076V7.264ZM81.2076 11.888H83.6236C84.6316 11.888 85.0956 11.44 85.0956 10.496C85.0956 9.616 84.5836 9.136 83.6396 9.136H81.2076V11.888ZM88.2271 10.304L90.5471 9.808C90.8511 11.472 91.5071 12.112 92.9951 12.112C94.0991 12.112 94.7231 11.712 94.7231 11.008C94.7231 10.224 94.1951 9.84 92.3231 9.2C91.0271 8.768 90.0991 8.288 89.5551 7.76C89.0111 7.232 88.7391 6.544 88.7391 5.728C88.7391 3.856 90.3071 2.56 92.5311 2.56C94.7231 2.56 96.4351 3.888 96.7871 5.856L94.4831 6.352C94.1791 5.216 93.5551 4.688 92.5311 4.688C91.6511 4.688 91.0751 5.088 91.0751 5.712C91.0751 6.288 91.5551 6.608 93.2191 7.168C94.6111 7.648 95.6031 8.176 96.1951 8.768C96.7871 9.36 97.0911 10.096 97.0911 11.008C97.0911 12.944 95.4111 14.24 92.9631 14.24C90.2911 14.24 88.6271 12.864 88.2271 10.304ZM97.8558 8.4C97.8558 4.864 99.8078 2.56 102.8 2.56C105.168 2.56 107.008 4.192 107.264 6.56L104.944 6.944C104.704 5.52 103.936 4.72 102.8 4.72C101.184 4.72 100.224 6.096 100.224 8.4C100.224 10.704 101.184 12.08 102.8 12.08C104 12.08 104.768 11.232 104.976 9.68L107.296 10.08C107.008 12.592 105.248 14.24 102.8 14.24C99.8078 14.24 97.8558 11.936 97.8558 8.4ZM114.875 9.808L117.147 14H114.603L112.491 10.064H111.051V14H108.683V2.8H113.243C115.611 2.8 117.067 4.176 117.067 6.416C117.067 8.032 116.267 9.264 114.875 9.792V9.808ZM111.051 7.904H112.955C114.091 7.904 114.699 7.376 114.699 6.4C114.699 5.44 114.123 4.96 112.955 4.96H111.051V7.904ZM118.652 14V2.8H121.02V14H118.652ZM123.246 14V2.8H127.838C130.222 2.8 131.726 4.192 131.726 6.496C131.726 8.816 130.254 10.176 127.806 10.176H125.614V14H123.246ZM125.614 8H127.774C128.734 8 129.358 7.424 129.358 6.48C129.358 5.472 128.83 4.96 127.79 4.96H125.614V8ZM135.602 14V4.976H132.354V2.8H141.202V4.976H137.97V14H135.602ZM142.683 14V2.8H145.051V14H142.683ZM146.637 8.4C146.637 4.88 148.589 2.56 151.581 2.56C154.557 2.56 156.541 4.88 156.541 8.4C156.541 11.92 154.557 14.24 151.581 14.24C148.589 14.24 146.637 11.92 146.637 8.4ZM154.173 8.4C154.173 6.096 153.181 4.72 151.581 4.72C149.981 4.72 149.005 6.096 149.005 8.4C149.005 10.704 149.981 12.08 151.581 12.08C153.197 12.08 154.173 10.704 154.173 8.4ZM158.105 14V2.8H160.537L164.329 9.92H164.361V2.8H166.729V14H164.297L160.505 6.88H160.473V14H158.105ZM168.133 10.304L170.453 9.808C170.757 11.472 171.413 12.112 172.901 12.112C174.005 12.112 174.629 11.712 174.629 11.008C174.629 10.224 174.101 9.84 172.229 9.2C170.933 8.768 170.005 8.288 169.461 7.76C168.917 7.232 168.645 6.544 168.645 5.728C168.645 3.856 170.213 2.56 172.437 2.56C174.629 2.56 176.341 3.888 176.693 5.856L174.389 6.352C174.085 5.216 173.461 4.688 172.437 4.688C171.557 4.688 170.981 5.088 170.981 5.712C170.981 6.288 171.461 6.608 173.125 7.168C174.517 7.648 175.509 8.176 176.101 8.768C176.693 9.36 176.997 10.096 176.997 11.008C176.997 12.944 175.317 14.24 172.869 14.24C170.197 14.24 168.533 12.864 168.133 10.304Z" fill="white"/>
<path d="M0.485596 45C0.485596 37.4575 0.485596 33.6863 2.82874 31.3431C5.17189 29 8.94312 29 16.4856 29H461.486V66H0.485596V45Z" fill="white" fill-opacity="0.7"/>
<path d="M21.5356 52V42.2H25.4696C27.5416 42.2 28.8296 43.404 28.8296 45.35C28.8296 47.324 27.5696 48.486 25.4556 48.486H23.2856V52H21.5356ZM23.2856 46.876H25.4276C26.4776 46.876 27.0796 46.316 27.0796 45.35C27.0796 44.328 26.5336 43.81 25.4276 43.81H23.2856V46.876ZM35.1752 48.192V48.206L37.2332 52H35.3152L33.3692 48.36H31.8852V52H30.1352V42.2H33.9712C36.0292 42.2 37.2892 43.362 37.2892 45.266C37.2892 46.736 36.5192 47.8 35.1752 48.192ZM31.8852 46.75H33.7752C34.9372 46.75 35.5392 46.232 35.5392 45.266C35.5392 44.3 34.9512 43.81 33.7752 43.81H31.8852V46.75ZM38.2158 47.1C38.2158 44.034 39.9098 41.99 42.4718 41.99C45.0338 41.99 46.7138 44.034 46.7138 47.1C46.7138 50.166 45.0338 52.21 42.4718 52.21C39.9098 52.21 38.2158 50.166 38.2158 47.1ZM44.9638 47.1C44.9638 44.93 44.0258 43.6 42.4718 43.6C40.9178 43.6 39.9658 44.93 39.9658 47.1C39.9658 49.284 40.9038 50.6 42.4718 50.6C44.0258 50.6 44.9638 49.27 44.9638 47.1ZM48.2504 52V42.2H51.5124C54.1024 42.2 55.7824 44.062 55.7824 47.1C55.7824 50.236 54.1164 52 51.4844 52H48.2504ZM50.0004 50.39H51.4704C53.0944 50.39 54.0324 49.298 54.0324 47.1C54.0324 44.972 53.0804 43.81 51.4984 43.81H50.0004V50.39ZM57.2586 48.78V42.2H59.0086V48.668C59.0086 49.956 59.6386 50.6 60.9126 50.6C62.2006 50.6 62.8446 49.97 62.8446 48.696V42.2H64.5946V48.78C64.5946 50.95 63.2506 52.21 60.9126 52.21C58.6026 52.21 57.2586 50.95 57.2586 48.78ZM66.0654 47.1C66.0654 44.034 67.7594 41.99 70.3214 41.99C72.3794 41.99 73.9054 43.39 74.1574 45.462L72.4354 45.742C72.1974 44.356 71.4554 43.6 70.3214 43.6C68.7534 43.6 67.8154 44.916 67.8154 47.1C67.8154 49.284 68.7534 50.6 70.3214 50.6C71.5114 50.6 72.2674 49.802 72.4494 48.276L74.1854 48.556C73.9614 50.782 72.4494 52.21 70.3214 52.21C67.7454 52.21 66.0654 50.194 66.0654 47.1ZM77.6568 52V43.81H74.7448V42.2H82.3188V43.81H79.4068V52H77.6568ZM87.393 52V42.2H89.255L92.951 49.046H92.979V42.2H94.729V52H92.867L89.171 45.154H89.143V52H87.393ZM102.637 52L102.063 50.32H98.0866L97.5126 52H95.7486L99.2766 42.2H100.887L104.401 52H102.637ZM98.6186 48.78H101.531L100.089 44.622H100.061L98.6186 48.78ZM105.426 52V42.2H107.442L110.34 49.2H110.368L113.28 42.2H115.296V52H113.574V45.308H113.546L110.732 52H109.99L107.176 45.308H107.148V52H105.426ZM117.403 52V42.2H123.563V43.81H119.153V46.204H123.171V47.758H119.153V50.39H123.563V52H117.403Z" fill="black"/>
<path d="M280.976 47.1C280.976 44.034 282.67 41.99 285.232 41.99C287.29 41.99 288.816 43.39 289.068 45.462L287.346 45.742C287.108 44.356 286.366 43.6 285.232 43.6C283.664 43.6 282.726 44.916 282.726 47.1C282.726 49.284 283.664 50.6 285.232 50.6C286.422 50.6 287.178 49.802 287.36 48.276L289.096 48.556C288.872 50.782 287.36 52.21 285.232 52.21C282.656 52.21 280.976 50.194 280.976 47.1ZM295.531 48.192V48.206L297.589 52H295.671L293.725 48.36H292.241V52H290.491V42.2H294.327C296.385 42.2 297.645 43.362 297.645 45.266C297.645 46.736 296.875 47.8 295.531 48.192ZM292.241 46.75H294.131C295.293 46.75 295.895 46.232 295.895 45.266C295.895 44.3 295.307 43.81 294.131 43.81H292.241V46.75ZM299.131 52V42.2H305.291V43.81H300.881V46.204H304.899V47.758H300.881V50.39H305.291V52H299.131ZM312.775 52L312.201 50.32H308.225L307.651 52H305.887L309.415 42.2H311.025L314.539 52H312.775ZM308.757 48.78H311.669L310.227 44.622H310.199L308.757 48.78ZM316.424 52V43.81H313.512V42.2H321.086V43.81H318.174V52H316.424ZM322.524 52V42.2H328.684V43.81H324.274V46.204H328.292V47.758H324.274V50.39H328.684V52H322.524ZM330.358 52V42.2H333.62C336.21 42.2 337.89 44.062 337.89 47.1C337.89 50.236 336.224 52 333.592 52H330.358ZM332.108 50.39H333.578C335.202 50.39 336.14 49.298 336.14 47.1C336.14 44.972 335.188 43.81 333.606 43.81H332.108V50.39Z" fill="black"/>
<rect width="461" height="39" transform="translate(0.485596 66)" fill="white" fill-opacity="0.25"/>
<path d="M21.7816 90V78.8H26.1976C28.5656 78.8 29.9736 80.144 29.9736 82.32C29.9736 84.512 28.5656 85.824 26.1816 85.824H23.4296V90H21.7816ZM23.4296 84.288H26.1176C27.5896 84.288 28.3256 83.632 28.3256 82.32C28.3256 80.976 27.6056 80.336 26.1336 80.336H23.4296V84.288ZM31.3053 90V81.52H32.7773V82.224H32.8093C33.1453 81.696 33.8013 81.376 34.5853 81.376C34.8893 81.376 35.2093 81.424 35.5293 81.504L35.2253 83.072C34.8893 82.976 34.6013 82.928 34.3453 82.928C33.3693 82.928 32.8733 83.6 32.8733 85.072V90H31.3053ZM35.9385 85.76C35.9385 83.12 37.5545 81.28 39.8745 81.28C42.1785 81.28 43.7145 83.024 43.7145 85.568V86.224H37.5225C37.5385 86.976 37.7625 87.616 38.1945 88.112C38.6265 88.608 39.1865 88.848 39.8745 88.848C40.9465 88.848 41.5865 88.432 42.2905 87.296L43.5065 88.112C42.7545 89.52 41.5065 90.24 39.8905 90.24C37.5385 90.24 35.9385 88.432 35.9385 85.76ZM37.5545 85.024H42.1625C42.0985 83.632 41.2185 82.672 39.8745 82.672C38.5945 82.672 37.5865 83.744 37.5545 85.024ZM45.3522 90V81.52H46.8562V82.192H46.8882C47.3362 81.632 48.1682 81.28 49.0002 81.28C49.8962 81.28 50.7442 81.696 51.1922 82.336H51.2242C51.8162 81.68 52.6322 81.28 53.5442 81.28C55.2722 81.28 56.5682 82.48 56.5682 84.176V90H55.0322V84.432C55.0322 83.408 54.3762 82.736 53.3682 82.736C52.3602 82.736 51.7042 83.456 51.7042 84.528V90H50.2162V84.432C50.2162 83.408 49.5442 82.736 48.5682 82.736C47.5442 82.736 46.8882 83.456 46.8882 84.528V90H45.3522ZM58.446 90V81.52H60.014V90H58.446ZM58.366 80.048V78.4H60.078V80.048H58.366ZM61.786 87.04V81.52H63.354V86.752C63.354 88.112 63.978 88.784 65.258 88.784C66.426 88.784 67.194 87.984 67.194 86.752V81.52H68.762V90H67.258V89.248H67.21C66.698 89.872 65.77 90.24 64.794 90.24C62.89 90.24 61.786 89.072 61.786 87.04ZM70.7116 90V81.52H72.2156V82.192H72.2476C72.6956 81.632 73.5276 81.28 74.3596 81.28C75.2556 81.28 76.1036 81.696 76.5516 82.336H76.5836C77.1756 81.68 77.9916 81.28 78.9036 81.28C80.6316 81.28 81.9276 82.48 81.9276 84.176V90H80.3916V84.432C80.3916 83.408 79.7356 82.736 78.7276 82.736C77.7196 82.736 77.0636 83.456 77.0636 84.528V90H75.5756V84.432C75.5756 83.408 74.9036 82.736 73.9276 82.736C72.9036 82.736 72.2476 83.456 72.2476 84.528V90H70.7116ZM87.5753 86.304L89.1913 85.984C89.4313 87.888 90.3753 88.72 92.2473 88.72C93.6553 88.72 94.5513 88.096 94.5513 87.136C94.5513 86.096 93.8793 85.552 91.6873 84.848C88.9993 83.968 88.1033 83.136 88.1033 81.584C88.1033 79.808 89.6073 78.56 91.7513 78.56C92.8233 78.56 93.7353 78.864 94.4873 79.456C95.2393 80.048 95.6873 80.832 95.8633 81.824L94.2633 82.176C93.9113 80.784 93.0793 80.08 91.7513 80.08C90.5193 80.08 89.7353 80.672 89.7353 81.584C89.7353 82.336 90.3273 82.784 92.2313 83.376C95.1273 84.336 96.1833 85.312 96.1833 87.104C96.1833 88.976 94.5673 90.24 92.2153 90.24C89.5113 90.24 87.8793 88.848 87.5753 86.304ZM101.889 82.928H99.8095V87.76C99.8095 88.32 100.033 88.512 100.721 88.512H101.489V90H100.577C98.8655 90 98.2415 89.408 98.2415 87.792V82.928H96.9135V81.52H98.2415V79.536H99.8095V81.52H101.889V82.928ZM103.29 90V81.52H104.762V82.224H104.794C105.13 81.696 105.786 81.376 106.57 81.376C106.874 81.376 107.194 81.424 107.514 81.504L107.21 83.072C106.874 82.976 106.586 82.928 106.33 82.928C105.354 82.928 104.858 83.6 104.858 85.072V90H103.29ZM107.923 85.76C107.923 83.12 109.539 81.28 111.859 81.28C114.163 81.28 115.699 83.024 115.699 85.568V86.224H109.507C109.523 86.976 109.747 87.616 110.179 88.112C110.611 88.608 111.171 88.848 111.859 88.848C112.931 88.848 113.571 88.432 114.275 87.296L115.491 88.112C114.739 89.52 113.491 90.24 111.875 90.24C109.523 90.24 107.923 88.432 107.923 85.76ZM109.539 85.024H114.147C114.083 83.632 113.203 82.672 111.859 82.672C110.579 82.672 109.571 83.744 109.539 85.024ZM116.892 87.792C116.892 86.368 117.724 85.616 119.884 85.104C121.42 84.72 121.9 84.416 121.9 83.792C121.9 83.104 121.308 82.656 120.348 82.656C119.308 82.656 118.588 83.264 118.38 84.336L116.86 84.016C117.004 83.184 117.388 82.528 118.012 82.032C118.652 81.536 119.436 81.28 120.348 81.28C122.316 81.28 123.532 82.384 123.532 84.176V90H122.092V89.184H122.06C121.596 89.84 120.716 90.24 119.676 90.24C117.996 90.24 116.892 89.28 116.892 87.792ZM121.98 87.136V85.456H121.948C121.804 85.824 121.308 86.08 120.284 86.352C118.94 86.688 118.428 87.056 118.428 87.696C118.428 88.416 118.924 88.832 119.868 88.832C121.1 88.832 121.98 88.112 121.98 87.136ZM125.399 90V81.52H126.903V82.192H126.935C127.383 81.632 128.215 81.28 129.047 81.28C129.943 81.28 130.791 81.696 131.239 82.336H131.271C131.863 81.68 132.679 81.28 133.591 81.28C135.319 81.28 136.615 82.48 136.615 84.176V90H135.079V84.432C135.079 83.408 134.423 82.736 133.415 82.736C132.407 82.736 131.751 83.456 131.751 84.528V90H130.263V84.432C130.263 83.408 129.591 82.736 128.615 82.736C127.591 82.736 126.935 83.456 126.935 84.528V90H125.399ZM138.493 90V81.52H140.061V90H138.493ZM138.413 80.048V78.4H140.125V80.048H138.413ZM141.993 90V81.52H143.497V82.272H143.529C144.041 81.68 144.985 81.28 145.881 81.28C147.817 81.28 149.081 82.544 149.081 84.528V90H147.513V84.768C147.513 83.504 146.793 82.736 145.577 82.736C144.361 82.736 143.561 83.552 143.561 84.768V90H141.993ZM151.234 91.616L152.562 90.864C153.122 92 153.73 92.416 154.802 92.416C156.098 92.416 156.882 91.536 156.882 90.112V89.184H156.85C156.386 89.84 155.49 90.24 154.418 90.24C152.194 90.24 150.626 88.384 150.626 85.76C150.626 83.152 152.226 81.296 154.434 81.296C155.394 81.296 156.29 81.68 156.85 82.336H156.882V81.52H158.418V90.192C158.418 92.368 156.978 93.84 154.802 93.84C153.186 93.84 151.858 93.008 151.234 91.616ZM156.85 86.496V85.04C156.85 83.776 155.842 82.752 154.562 82.752C153.138 82.752 152.194 83.92 152.194 85.76C152.194 87.616 153.138 88.784 154.61 88.784C155.858 88.784 156.85 87.76 156.85 86.496ZM164.956 85.28C164.956 82.336 165.98 79.84 168.172 77.408L169.196 78.224C168.252 79.376 167.564 80.512 167.148 81.616C166.732 82.72 166.524 83.936 166.524 85.28C166.524 86.608 166.732 87.84 167.148 88.944C167.564 90.048 168.252 91.168 169.196 92.336L168.172 93.152C165.98 90.72 164.956 88.224 164.956 85.28ZM170.969 90V78.8H173.001L176.473 87.264H176.505L179.977 78.8H182.009V90H180.377V81.6H180.345L176.825 90H176.137L172.633 81.6H172.601V90H170.969ZM183.938 85.76C183.938 83.088 185.57 81.28 187.986 81.28C190.402 81.28 192.034 83.088 192.034 85.76C192.034 88.432 190.402 90.24 187.986 90.24C185.57 90.24 183.938 88.432 183.938 85.76ZM190.466 85.76C190.466 83.904 189.522 82.736 187.986 82.736C186.45 82.736 185.506 83.904 185.506 85.76C185.506 87.616 186.45 88.784 187.986 88.784C189.522 88.784 190.466 87.616 190.466 85.76ZM193.665 90V81.52H195.169V82.272H195.201C195.713 81.68 196.657 81.28 197.553 81.28C199.489 81.28 200.753 82.544 200.753 84.528V90H199.185V84.768C199.185 83.504 198.465 82.736 197.249 82.736C196.033 82.736 195.233 83.552 195.233 84.768V90H193.665ZM206.718 82.928H204.638V87.76C204.638 88.32 204.862 88.512 205.55 88.512H206.318V90H205.406C203.694 90 203.07 89.408 203.07 87.792V82.928H201.742V81.52H203.07V79.536H204.638V81.52H206.718V82.928ZM208.118 90V78.32H209.686V82.272H209.718C210.214 81.68 211.11 81.28 212.006 81.28C213.942 81.28 215.206 82.544 215.206 84.48V90H213.638V84.768C213.638 83.504 212.918 82.736 211.702 82.736C210.486 82.736 209.686 83.552 209.686 84.768V90H208.118ZM217.071 90V78.32H218.639V90H217.071ZM221.211 93.6L222.971 89.36L219.707 81.52H221.355L223.755 87.552H223.787L226.219 81.52H227.867L222.827 93.6H221.211ZM228.969 93.152L227.945 92.336C228.889 91.168 229.577 90.048 229.993 88.944C230.409 87.84 230.617 86.608 230.617 85.28C230.617 83.936 230.409 82.72 229.993 81.616C229.577 80.512 228.889 79.376 227.945 78.224L228.969 77.408C231.161 79.84 232.185 82.336 232.185 85.28C232.185 88.224 231.161 90.72 228.969 93.152Z" fill="white"/>
<path d="M283.558 90V81.008L280.998 82.576V80.912L283.702 79.248H285.126V90H283.558ZM287.298 84.624C287.298 81.168 289.106 79.024 291.794 79.024C294.466 79.024 296.306 81.168 296.306 84.624C296.306 88.064 294.466 90.224 291.794 90.224C289.138 90.224 287.298 88.08 287.298 84.624ZM294.722 84.624C294.722 82 293.602 80.48 291.794 80.48C289.986 80.48 288.866 82 288.866 84.624C288.866 87.248 289.986 88.768 291.794 88.768C293.602 88.768 294.722 87.248 294.722 84.624ZM298.187 90.688L297.131 90.24L302.891 78.08L303.947 78.56L298.187 90.688ZM306.878 88.544H312.75V90H305.15V88.816C305.15 87.904 305.326 87.2 305.662 86.672C306.11 85.984 306.862 85.488 308.478 84.72C310.686 83.68 311.342 83.104 311.342 82.096C311.342 81.136 310.462 80.48 309.166 80.48C307.614 80.48 306.654 81.344 306.526 82.896L304.974 82.784C305.054 81.616 305.454 80.704 306.206 80.032C306.958 79.36 307.95 79.024 309.166 79.024C311.294 79.024 312.91 80.352 312.91 82.096C312.91 82.88 312.67 83.552 312.174 84.112C311.678 84.656 310.846 85.2 309.646 85.76C308.734 86.192 308.11 86.512 307.774 86.72C307.454 86.928 307.23 87.136 307.102 87.376C306.958 87.632 306.894 87.92 306.878 88.544ZM313.907 84.624C313.907 81.168 315.715 79.024 318.403 79.024C321.075 79.024 322.915 81.168 322.915 84.624C322.915 88.064 321.075 90.224 318.403 90.224C315.747 90.224 313.907 88.08 313.907 84.624ZM321.331 84.624C321.331 82 320.211 80.48 318.403 80.48C316.595 80.48 315.475 82 315.475 84.624C315.475 87.248 316.595 88.768 318.403 88.768C320.211 88.768 321.331 87.248 321.331 84.624ZM324.796 90.688L323.74 90.24L329.5 78.08L330.556 78.56L324.796 90.688ZM333.487 88.544H339.359V90H331.759V88.816C331.759 87.904 331.935 87.2 332.271 86.672C332.719 85.984 333.471 85.488 335.087 84.72C337.295 83.68 337.951 83.104 337.951 82.096C337.951 81.136 337.071 80.48 335.775 80.48C334.223 80.48 333.263 81.344 333.135 82.896L331.583 82.784C331.663 81.616 332.063 80.704 332.815 80.032C333.567 79.36 334.559 79.024 335.775 79.024C337.903 79.024 339.519 80.352 339.519 82.096C339.519 82.88 339.279 83.552 338.783 84.112C338.287 84.656 337.455 85.2 336.255 85.76C335.343 86.192 334.719 86.512 334.383 86.72C334.063 86.928 333.839 87.136 333.711 87.376C333.567 87.632 333.503 87.92 333.487 88.544ZM340.517 84.624C340.517 81.168 342.325 79.024 345.013 79.024C347.685 79.024 349.525 81.168 349.525 84.624C349.525 88.064 347.685 90.224 345.013 90.224C342.357 90.224 340.517 88.08 340.517 84.624ZM347.941 84.624C347.941 82 346.821 80.48 345.013 80.48C343.205 80.48 342.085 82 342.085 84.624C342.085 87.248 343.205 88.768 345.013 88.768C346.821 88.768 347.941 87.248 347.941 84.624ZM352.362 88.544H358.234V90H350.634V88.816C350.634 87.904 350.81 87.2 351.146 86.672C351.594 85.984 352.346 85.488 353.962 84.72C356.17 83.68 356.826 83.104 356.826 82.096C356.826 81.136 355.946 80.48 354.65 80.48C353.098 80.48 352.138 81.344 352.01 82.896L350.458 82.784C350.538 81.616 350.938 80.704 351.69 80.032C352.442 79.36 353.434 79.024 354.65 79.024C356.778 79.024 358.394 80.352 358.394 82.096C358.394 82.88 358.154 83.552 357.658 84.112C357.162 84.656 356.33 85.2 355.13 85.76C354.218 86.192 353.594 86.512 353.258 86.72C352.938 86.928 352.714 87.136 352.586 87.376C352.442 87.632 352.378 87.92 352.362 88.544ZM359.579 86.432L361.115 86.16C361.355 87.936 362.219 88.768 363.835 88.768C365.179 88.768 366.043 88.032 366.043 86.896C366.043 85.616 365.243 84.976 363.643 84.976H362.747V83.664H363.595C364.827 83.664 365.755 82.992 365.755 82.096C365.755 81.088 365.003 80.464 363.771 80.464C362.475 80.464 361.563 81.168 361.371 82.336L359.835 82.08C360.107 80.208 361.643 79.024 363.771 79.024C365.867 79.024 367.323 80.208 367.323 81.936C367.323 82.88 366.747 83.712 365.851 84.144V84.176C366.939 84.608 367.611 85.648 367.611 86.944C367.611 88.864 366.091 90.224 363.835 90.224C361.403 90.224 359.851 88.848 359.579 86.432Z" fill="white"/>
<rect width="461" height="39" transform="translate(0.485596 105)" fill="#015A79"/>
<path d="M21.7816 129V117.8H26.1976C28.5656 117.8 29.9736 119.144 29.9736 121.32C29.9736 123.512 28.5656 124.824 26.1816 124.824H23.4296V129H21.7816ZM23.4296 123.288H26.1176C27.5896 123.288 28.3256 122.632 28.3256 121.32C28.3256 119.976 27.6056 119.336 26.1336 119.336H23.4296V123.288ZM31.3053 129V120.52H32.7773V121.224H32.8093C33.1453 120.696 33.8013 120.376 34.5853 120.376C34.8893 120.376 35.2093 120.424 35.5293 120.504L35.2253 122.072C34.8893 121.976 34.6013 121.928 34.3453 121.928C33.3693 121.928 32.8733 122.6 32.8733 124.072V129H31.3053ZM35.9385 124.76C35.9385 122.088 37.5705 120.28 39.9865 120.28C42.4025 120.28 44.0345 122.088 44.0345 124.76C44.0345 127.432 42.4025 129.24 39.9865 129.24C37.5705 129.24 35.9385 127.432 35.9385 124.76ZM42.4665 124.76C42.4665 122.904 41.5225 121.736 39.9865 121.736C38.4505 121.736 37.5065 122.904 37.5065 124.76C37.5065 126.616 38.4505 127.784 39.9865 127.784C41.5225 127.784 42.4665 126.616 42.4665 124.76ZM45.6647 129V120.52H47.1687V121.192H47.2007C47.6487 120.632 48.4807 120.28 49.3127 120.28C50.2087 120.28 51.0567 120.696 51.5047 121.336H51.5367C52.1287 120.68 52.9447 120.28 53.8567 120.28C55.5847 120.28 56.8807 121.48 56.8807 123.176V129H55.3447V123.432C55.3447 122.408 54.6887 121.736 53.6807 121.736C52.6727 121.736 52.0167 122.456 52.0167 123.528V129H50.5287V123.432C50.5287 122.408 49.8567 121.736 48.8807 121.736C47.8567 121.736 47.2007 122.456 47.2007 123.528V129H45.6647ZM58.4385 124.76C58.4385 122.088 60.0705 120.28 62.4865 120.28C64.9025 120.28 66.5345 122.088 66.5345 124.76C66.5345 127.432 64.9025 129.24 62.4865 129.24C60.0705 129.24 58.4385 127.432 58.4385 124.76ZM64.9665 124.76C64.9665 122.904 64.0225 121.736 62.4865 121.736C60.9505 121.736 60.0065 122.904 60.0065 124.76C60.0065 126.616 60.9505 127.784 62.4865 127.784C64.0225 127.784 64.9665 126.616 64.9665 124.76ZM72.2645 121.928H70.1845V126.76C70.1845 127.32 70.4085 127.512 71.0965 127.512H71.8645V129H70.9525C69.2405 129 68.6165 128.408 68.6165 126.792V121.928H67.2885V120.52H68.6165V118.536H70.1845V120.52H72.2645V121.928ZM73.6647 129V120.52H75.2327V129H73.6647ZM73.5847 119.048V117.4H75.2967V119.048H73.5847ZM76.8447 124.76C76.8447 122.088 78.4767 120.28 80.8927 120.28C83.3087 120.28 84.9407 122.088 84.9407 124.76C84.9407 127.432 83.3087 129.24 80.8927 129.24C78.4767 129.24 76.8447 127.432 76.8447 124.76ZM83.3727 124.76C83.3727 122.904 82.4287 121.736 80.8927 121.736C79.3567 121.736 78.4127 122.904 78.4127 124.76C78.4127 126.616 79.3567 127.784 80.8927 127.784C82.4287 127.784 83.3727 126.616 83.3727 124.76ZM86.571 129V120.52H88.075V121.272H88.107C88.619 120.68 89.563 120.28 90.459 120.28C92.395 120.28 93.659 121.544 93.659 123.528V129H92.091V123.768C92.091 122.504 91.371 121.736 90.155 121.736C88.939 121.736 88.139 122.552 88.139 123.768V129H86.571ZM95.2361 126.792C95.2361 125.368 96.0681 124.616 98.2281 124.104C99.7641 123.72 100.244 123.416 100.244 122.792C100.244 122.104 99.6521 121.656 98.6921 121.656C97.6521 121.656 96.9321 122.264 96.7241 123.336L95.2041 123.016C95.3481 122.184 95.7321 121.528 96.3561 121.032C96.9961 120.536 97.7801 120.28 98.6921 120.28C100.66 120.28 101.876 121.384 101.876 123.176V129H100.436V128.184H100.404C99.9401 128.84 99.0601 129.24 98.0201 129.24C96.3401 129.24 95.2361 128.28 95.2361 126.792ZM100.324 126.136V124.456H100.292C100.148 124.824 99.6521 125.08 98.6281 125.352C97.2841 125.688 96.7721 126.056 96.7721 126.696C96.7721 127.416 97.2681 127.832 98.2121 127.832C99.4441 127.832 100.324 127.112 100.324 126.136ZM103.743 129V117.32H105.311V129H103.743ZM117.173 124.504V124.52L119.589 129H117.733L115.429 124.632H113.461V129H111.813V117.8H116.037C118.389 117.8 119.797 119.08 119.797 121.208C119.797 122.936 118.837 124.136 117.173 124.504ZM113.461 123.112H115.877C117.365 123.112 118.149 122.44 118.149 121.208C118.149 119.96 117.397 119.336 115.877 119.336H113.461V123.112ZM121.017 126.792C121.017 125.368 121.849 124.616 124.009 124.104C125.545 123.72 126.025 123.416 126.025 122.792C126.025 122.104 125.433 121.656 124.473 121.656C123.433 121.656 122.713 122.264 122.505 123.336L120.985 123.016C121.129 122.184 121.513 121.528 122.137 121.032C122.777 120.536 123.561 120.28 124.473 120.28C126.441 120.28 127.657 121.384 127.657 123.176V129H126.217V128.184H126.185C125.721 128.84 124.841 129.24 123.801 129.24C122.121 129.24 121.017 128.28 121.017 126.792ZM126.105 126.136V124.456H126.073C125.929 124.824 125.433 125.08 124.409 125.352C123.065 125.688 122.553 126.056 122.553 126.696C122.553 127.416 123.049 127.832 123.993 127.832C125.225 127.832 126.105 127.112 126.105 126.136ZM133.624 121.928H131.544V126.76C131.544 127.32 131.768 127.512 132.456 127.512H133.224V129H132.312C130.6 129 129.976 128.408 129.976 126.792V121.928H128.648V120.52H129.976V118.536H131.544V120.52H133.624V121.928ZM134.267 124.76C134.267 122.12 135.883 120.28 138.203 120.28C140.507 120.28 142.043 122.024 142.043 124.568V125.224H135.851C135.867 125.976 136.091 126.616 136.523 127.112C136.955 127.608 137.515 127.848 138.203 127.848C139.275 127.848 139.915 127.432 140.619 126.296L141.835 127.112C141.083 128.52 139.835 129.24 138.219 129.24C135.867 129.24 134.267 127.432 134.267 124.76ZM135.883 124.024H140.491C140.427 122.632 139.547 121.672 138.203 121.672C136.923 121.672 135.915 122.744 135.883 124.024ZM148.346 124.28C148.346 121.336 149.37 118.84 151.562 116.408L152.586 117.224C151.642 118.376 150.954 119.512 150.538 120.616C150.122 121.72 149.914 122.936 149.914 124.28C149.914 125.608 150.122 126.84 150.538 127.944C150.954 129.048 151.642 130.168 152.586 131.336L151.562 132.152C149.37 129.72 148.346 127.224 148.346 124.28ZM154.36 129V117.8H156.392L159.864 126.264H159.896L163.368 117.8H165.4V129H163.768V120.6H163.736L160.216 129H159.528L156.024 120.6H155.992V129H154.36ZM167.329 124.76C167.329 122.088 168.961 120.28 171.377 120.28C173.793 120.28 175.425 122.088 175.425 124.76C175.425 127.432 173.793 129.24 171.377 129.24C168.961 129.24 167.329 127.432 167.329 124.76ZM173.857 124.76C173.857 122.904 172.913 121.736 171.377 121.736C169.841 121.736 168.897 122.904 168.897 124.76C168.897 126.616 169.841 127.784 171.377 127.784C172.913 127.784 173.857 126.616 173.857 124.76ZM177.055 129V120.52H178.559V121.272H178.591C179.103 120.68 180.047 120.28 180.943 120.28C182.879 120.28 184.143 121.544 184.143 123.528V129H182.575V123.768C182.575 122.504 181.855 121.736 180.639 121.736C179.423 121.736 178.623 122.552 178.623 123.768V129H177.055ZM190.108 121.928H188.028V126.76C188.028 127.32 188.252 127.512 188.94 127.512H189.708V129H188.796C187.084 129 186.46 128.408 186.46 126.792V121.928H185.132V120.52H186.46V118.536H188.028V120.52H190.108V121.928ZM191.508 129V117.32H193.076V121.272H193.108C193.604 120.68 194.5 120.28 195.396 120.28C197.332 120.28 198.596 121.544 198.596 123.48V129H197.028V123.768C197.028 122.504 196.308 121.736 195.092 121.736C193.876 121.736 193.076 122.552 193.076 123.768V129H191.508ZM200.462 129V117.32H202.03V129H200.462ZM204.602 132.6L206.362 128.36L203.098 120.52H204.746L207.146 126.552H207.178L209.61 120.52H211.258L206.218 132.6H204.602ZM212.36 132.152L211.336 131.336C212.28 130.168 212.968 129.048 213.384 127.944C213.8 126.84 214.008 125.608 214.008 124.28C214.008 122.936 213.8 121.72 213.384 120.616C212.968 119.512 212.28 118.376 211.336 117.224L212.36 116.408C214.552 118.84 215.576 121.336 215.576 124.28C215.576 127.224 214.552 129.72 212.36 132.152Z" fill="white"/>
<path d="M283.558 129V120.008L280.998 121.576V119.912L283.702 118.248H285.126V129H283.558ZM287.298 123.624C287.298 120.168 289.106 118.024 291.794 118.024C294.466 118.024 296.306 120.168 296.306 123.624C296.306 127.064 294.466 129.224 291.794 129.224C289.138 129.224 287.298 127.08 287.298 123.624ZM294.722 123.624C294.722 121 293.602 119.48 291.794 119.48C289.986 119.48 288.866 121 288.866 123.624C288.866 126.248 289.986 127.768 291.794 127.768C293.602 127.768 294.722 126.248 294.722 123.624ZM298.187 129.688L297.131 129.24L302.891 117.08L303.947 117.56L298.187 129.688ZM306.878 127.544H312.75V129H305.15V127.816C305.15 126.904 305.326 126.2 305.662 125.672C306.11 124.984 306.862 124.488 308.478 123.72C310.686 122.68 311.342 122.104 311.342 121.096C311.342 120.136 310.462 119.48 309.166 119.48C307.614 119.48 306.654 120.344 306.526 121.896L304.974 121.784C305.054 120.616 305.454 119.704 306.206 119.032C306.958 118.36 307.95 118.024 309.166 118.024C311.294 118.024 312.91 119.352 312.91 121.096C312.91 121.88 312.67 122.552 312.174 123.112C311.678 123.656 310.846 124.2 309.646 124.76C308.734 125.192 308.11 125.512 307.774 125.72C307.454 125.928 307.23 126.136 307.102 126.376C306.958 126.632 306.894 126.92 306.878 127.544ZM313.907 123.624C313.907 120.168 315.715 118.024 318.403 118.024C321.075 118.024 322.915 120.168 322.915 123.624C322.915 127.064 321.075 129.224 318.403 129.224C315.747 129.224 313.907 127.08 313.907 123.624ZM321.331 123.624C321.331 121 320.211 119.48 318.403 119.48C316.595 119.48 315.475 121 315.475 123.624C315.475 126.248 316.595 127.768 318.403 127.768C320.211 127.768 321.331 126.248 321.331 123.624ZM324.796 129.688L323.74 129.24L329.5 117.08L330.556 117.56L324.796 129.688ZM333.487 127.544H339.359V129H331.759V127.816C331.759 126.904 331.935 126.2 332.271 125.672C332.719 124.984 333.471 124.488 335.087 123.72C337.295 122.68 337.951 122.104 337.951 121.096C337.951 120.136 337.071 119.48 335.775 119.48C334.223 119.48 333.263 120.344 333.135 121.896L331.583 121.784C331.663 120.616 332.063 119.704 332.815 119.032C333.567 118.36 334.559 118.024 335.775 118.024C337.903 118.024 339.519 119.352 339.519 121.096C339.519 121.88 339.279 122.552 338.783 123.112C338.287 123.656 337.455 124.2 336.255 124.76C335.343 125.192 334.719 125.512 334.383 125.72C334.063 125.928 333.839 126.136 333.711 126.376C333.567 126.632 333.503 126.92 333.487 127.544ZM340.517 123.624C340.517 120.168 342.325 118.024 345.013 118.024C347.685 118.024 349.525 120.168 349.525 123.624C349.525 127.064 347.685 129.224 345.013 129.224C342.357 129.224 340.517 127.08 340.517 123.624ZM347.941 123.624C347.941 121 346.821 119.48 345.013 119.48C343.205 119.48 342.085 121 342.085 123.624C342.085 126.248 343.205 127.768 345.013 127.768C346.821 127.768 347.941 126.248 347.941 123.624ZM352.362 127.544H358.234V129H350.634V127.816C350.634 126.904 350.81 126.2 351.146 125.672C351.594 124.984 352.346 124.488 353.962 123.72C356.17 122.68 356.826 122.104 356.826 121.096C356.826 120.136 355.946 119.48 354.65 119.48C353.098 119.48 352.138 120.344 352.01 121.896L350.458 121.784C350.538 120.616 350.938 119.704 351.69 119.032C352.442 118.36 353.434 118.024 354.65 118.024C356.778 118.024 358.394 119.352 358.394 121.096C358.394 121.88 358.154 122.552 357.658 123.112C357.162 123.656 356.33 124.2 355.13 124.76C354.218 125.192 353.594 125.512 353.258 125.72C352.938 125.928 352.714 126.136 352.586 126.376C352.442 126.632 352.378 126.92 352.362 127.544ZM359.579 125.432L361.115 125.16C361.355 126.936 362.219 127.768 363.835 127.768C365.179 127.768 366.043 127.032 366.043 125.896C366.043 124.616 365.243 123.976 363.643 123.976H362.747V122.664H363.595C364.827 122.664 365.755 121.992 365.755 121.096C365.755 120.088 365.003 119.464 363.771 119.464C362.475 119.464 361.563 120.168 361.371 121.336L359.835 121.08C360.107 119.208 361.643 118.024 363.771 118.024C365.867 118.024 367.323 119.208 367.323 120.936C367.323 121.88 366.747 122.712 365.851 123.144V123.176C366.939 123.608 367.611 124.648 367.611 125.944C367.611 127.864 366.091 129.224 363.835 129.224C361.403 129.224 359.851 127.848 359.579 125.432Z" fill="white"/>
<path d="M0.485596 144H461.486V183H16.4856C8.94313 183 5.17189 183 2.82874 180.657C0.485596 178.314 0.485596 174.542 0.485596 167V144Z" fill="white" fill-opacity="0.25"/>
<path d="M21.7816 168V156.8H26.1976C28.5656 156.8 29.9736 158.144 29.9736 160.32C29.9736 162.512 28.5656 163.824 26.1816 163.824H23.4296V168H21.7816ZM23.4296 162.288H26.1176C27.5896 162.288 28.3256 161.632 28.3256 160.32C28.3256 158.976 27.6056 158.336 26.1336 158.336H23.4296V162.288ZM31.3053 168V159.52H32.7773V160.224H32.8093C33.1453 159.696 33.8013 159.376 34.5853 159.376C34.8893 159.376 35.2093 159.424 35.5293 159.504L35.2253 161.072C34.8893 160.976 34.6013 160.928 34.3453 160.928C33.3693 160.928 32.8733 161.6 32.8733 163.072V168H31.3053ZM35.9385 163.76C35.9385 161.12 37.5545 159.28 39.8745 159.28C42.1785 159.28 43.7145 161.024 43.7145 163.568V164.224H37.5225C37.5385 164.976 37.7625 165.616 38.1945 166.112C38.6265 166.608 39.1865 166.848 39.8745 166.848C40.9465 166.848 41.5865 166.432 42.2905 165.296L43.5065 166.112C42.7545 167.52 41.5065 168.24 39.8905 168.24C37.5385 168.24 35.9385 166.432 35.9385 163.76ZM37.5545 163.024H42.1625C42.0985 161.632 41.2185 160.672 39.8745 160.672C38.5945 160.672 37.5865 161.744 37.5545 163.024ZM45.3522 168V159.52H46.8562V160.192H46.8882C47.3362 159.632 48.1682 159.28 49.0002 159.28C49.8962 159.28 50.7442 159.696 51.1922 160.336H51.2242C51.8162 159.68 52.6322 159.28 53.5442 159.28C55.2722 159.28 56.5682 160.48 56.5682 162.176V168H55.0322V162.432C55.0322 161.408 54.3762 160.736 53.3682 160.736C52.3602 160.736 51.7042 161.456 51.7042 162.528V168H50.2162V162.432C50.2162 161.408 49.5442 160.736 48.5682 160.736C47.5442 160.736 46.8882 161.456 46.8882 162.528V168H45.3522ZM58.446 168V159.52H60.014V168H58.446ZM58.366 158.048V156.4H60.078V158.048H58.366ZM61.786 165.04V159.52H63.354V164.752C63.354 166.112 63.978 166.784 65.258 166.784C66.426 166.784 67.194 165.984 67.194 164.752V159.52H68.762V168H67.258V167.248H67.21C66.698 167.872 65.77 168.24 64.794 168.24C62.89 168.24 61.786 167.072 61.786 165.04ZM70.7116 168V159.52H72.2156V160.192H72.2476C72.6956 159.632 73.5276 159.28 74.3596 159.28C75.2556 159.28 76.1036 159.696 76.5516 160.336H76.5836C77.1756 159.68 77.9916 159.28 78.9036 159.28C80.6316 159.28 81.9276 160.48 81.9276 162.176V168H80.3916V162.432C80.3916 161.408 79.7356 160.736 78.7276 160.736C77.7196 160.736 77.0636 161.456 77.0636 162.528V168H75.5756V162.432C75.5756 161.408 74.9036 160.736 73.9276 160.736C72.9036 160.736 72.2476 161.456 72.2476 162.528V168H70.7116ZM87.5753 164.304L89.1913 163.984C89.4313 165.888 90.3753 166.72 92.2473 166.72C93.6553 166.72 94.5513 166.096 94.5513 165.136C94.5513 164.096 93.8793 163.552 91.6873 162.848C88.9993 161.968 88.1033 161.136 88.1033 159.584C88.1033 157.808 89.6073 156.56 91.7513 156.56C92.8233 156.56 93.7353 156.864 94.4873 157.456C95.2393 158.048 95.6873 158.832 95.8633 159.824L94.2633 160.176C93.9113 158.784 93.0793 158.08 91.7513 158.08C90.5193 158.08 89.7353 158.672 89.7353 159.584C89.7353 160.336 90.3273 160.784 92.2313 161.376C95.1273 162.336 96.1833 163.312 96.1833 165.104C96.1833 166.976 94.5673 168.24 92.2153 168.24C89.5113 168.24 87.8793 166.848 87.5753 164.304ZM101.889 160.928H99.8095V165.76C99.8095 166.32 100.033 166.512 100.721 166.512H101.489V168H100.577C98.8655 168 98.2415 167.408 98.2415 165.792V160.928H96.9135V159.52H98.2415V157.536H99.8095V159.52H101.889V160.928ZM103.29 168V159.52H104.762V160.224H104.794C105.13 159.696 105.786 159.376 106.57 159.376C106.874 159.376 107.194 159.424 107.514 159.504L107.21 161.072C106.874 160.976 106.586 160.928 106.33 160.928C105.354 160.928 104.858 161.6 104.858 163.072V168H103.29ZM107.923 163.76C107.923 161.12 109.539 159.28 111.859 159.28C114.163 159.28 115.699 161.024 115.699 163.568V164.224H109.507C109.523 164.976 109.747 165.616 110.179 166.112C110.611 166.608 111.171 166.848 111.859 166.848C112.931 166.848 113.571 166.432 114.275 165.296L115.491 166.112C114.739 167.52 113.491 168.24 111.875 168.24C109.523 168.24 107.923 166.432 107.923 163.76ZM109.539 163.024H114.147C114.083 161.632 113.203 160.672 111.859 160.672C110.579 160.672 109.571 161.744 109.539 163.024ZM116.892 165.792C116.892 164.368 117.724 163.616 119.884 163.104C121.42 162.72 121.9 162.416 121.9 161.792C121.9 161.104 121.308 160.656 120.348 160.656C119.308 160.656 118.588 161.264 118.38 162.336L116.86 162.016C117.004 161.184 117.388 160.528 118.012 160.032C118.652 159.536 119.436 159.28 120.348 159.28C122.316 159.28 123.532 160.384 123.532 162.176V168H122.092V167.184H122.06C121.596 167.84 120.716 168.24 119.676 168.24C117.996 168.24 116.892 167.28 116.892 165.792ZM121.98 165.136V163.456H121.948C121.804 163.824 121.308 164.08 120.284 164.352C118.94 164.688 118.428 165.056 118.428 165.696C118.428 166.416 118.924 166.832 119.868 166.832C121.1 166.832 121.98 166.112 121.98 165.136ZM125.399 168V159.52H126.903V160.192H126.935C127.383 159.632 128.215 159.28 129.047 159.28C129.943 159.28 130.791 159.696 131.239 160.336H131.271C131.863 159.68 132.679 159.28 133.591 159.28C135.319 159.28 136.615 160.48 136.615 162.176V168H135.079V162.432C135.079 161.408 134.423 160.736 133.415 160.736C132.407 160.736 131.751 161.456 131.751 162.528V168H130.263V162.432C130.263 161.408 129.591 160.736 128.615 160.736C127.591 160.736 126.935 161.456 126.935 162.528V168H125.399ZM138.493 168V159.52H140.061V168H138.493ZM138.413 158.048V156.4H140.125V158.048H138.413ZM141.993 168V159.52H143.497V160.272H143.529C144.041 159.68 144.985 159.28 145.881 159.28C147.817 159.28 149.081 160.544 149.081 162.528V168H147.513V162.768C147.513 161.504 146.793 160.736 145.577 160.736C144.361 160.736 143.561 161.552 143.561 162.768V168H141.993ZM151.234 169.616L152.562 168.864C153.122 170 153.73 170.416 154.802 170.416C156.098 170.416 156.882 169.536 156.882 168.112V167.184H156.85C156.386 167.84 155.49 168.24 154.418 168.24C152.194 168.24 150.626 166.384 150.626 163.76C150.626 161.152 152.226 159.296 154.434 159.296C155.394 159.296 156.29 159.68 156.85 160.336H156.882V159.52H158.418V168.192C158.418 170.368 156.978 171.84 154.802 171.84C153.186 171.84 151.858 171.008 151.234 169.616ZM156.85 164.496V163.04C156.85 161.776 155.842 160.752 154.562 160.752C153.138 160.752 152.194 161.92 152.194 163.76C152.194 165.616 153.138 166.784 154.61 166.784C155.858 166.784 156.85 165.76 156.85 164.496ZM164.956 163.28C164.956 160.336 165.98 157.84 168.172 155.408L169.196 156.224C168.252 157.376 167.564 158.512 167.148 159.616C166.732 160.72 166.524 161.936 166.524 163.28C166.524 164.608 166.732 165.84 167.148 166.944C167.564 168.048 168.252 169.168 169.196 170.336L168.172 171.152C165.98 168.72 164.956 166.224 164.956 163.28ZM177.422 168L176.686 165.904H171.902L171.166 168H169.502L173.534 156.8H175.07L179.086 168H177.422ZM172.398 164.464H176.19L174.318 159.072H174.286L172.398 164.464ZM180.087 168V159.52H181.591V160.272H181.623C182.135 159.68 183.079 159.28 183.975 159.28C185.911 159.28 187.175 160.544 187.175 162.528V168H185.607V162.768C185.607 161.504 184.887 160.736 183.671 160.736C182.455 160.736 181.655 161.552 181.655 162.768V168H180.087ZM189.04 168V159.52H190.544V160.272H190.576C191.088 159.68 192.032 159.28 192.928 159.28C194.864 159.28 196.128 160.544 196.128 162.528V168H194.56V162.768C194.56 161.504 193.84 160.736 192.624 160.736C191.408 160.736 190.608 161.552 190.608 162.768V168H189.04ZM197.833 165.04V159.52H199.401V164.752C199.401 166.112 200.025 166.784 201.305 166.784C202.473 166.784 203.241 165.984 203.241 164.752V159.52H204.809V168H203.305V167.248H203.257C202.745 167.872 201.817 168.24 200.841 168.24C198.937 168.24 197.833 167.072 197.833 165.04ZM206.47 165.792C206.47 164.368 207.302 163.616 209.462 163.104C210.998 162.72 211.478 162.416 211.478 161.792C211.478 161.104 210.886 160.656 209.926 160.656C208.886 160.656 208.166 161.264 207.958 162.336L206.438 162.016C206.582 161.184 206.966 160.528 207.59 160.032C208.23 159.536 209.014 159.28 209.926 159.28C211.894 159.28 213.11 160.384 213.11 162.176V168H211.67V167.184H211.638C211.174 167.84 210.294 168.24 209.254 168.24C207.574 168.24 206.47 167.28 206.47 165.792ZM211.558 165.136V163.456H211.526C211.382 163.824 210.886 164.08 209.862 164.352C208.518 164.688 208.006 165.056 208.006 165.696C208.006 166.416 208.502 166.832 209.446 166.832C210.678 166.832 211.558 166.112 211.558 165.136ZM214.977 168V156.32H216.545V168H214.977ZM219 171.152L217.976 170.336C218.92 169.168 219.608 168.048 220.024 166.944C220.44 165.84 220.648 164.608 220.648 163.28C220.648 161.936 220.44 160.72 220.024 159.616C219.608 158.512 218.92 157.376 217.976 156.224L219 155.408C221.192 157.84 222.216 160.336 222.216 163.28C222.216 166.224 221.192 168.72 219 171.152Z" fill="white"/>
<path d="M283.558 168V159.008L280.998 160.576V158.912L283.702 157.248H285.126V168H283.558ZM287.298 162.624C287.298 159.168 289.106 157.024 291.794 157.024C294.466 157.024 296.306 159.168 296.306 162.624C296.306 166.064 294.466 168.224 291.794 168.224C289.138 168.224 287.298 166.08 287.298 162.624ZM294.722 162.624C294.722 160 293.602 158.48 291.794 158.48C289.986 158.48 288.866 160 288.866 162.624C288.866 165.248 289.986 166.768 291.794 166.768C293.602 166.768 294.722 165.248 294.722 162.624ZM298.187 168.688L297.131 168.24L302.891 156.08L303.947 156.56L298.187 168.688ZM306.878 166.544H312.75V168H305.15V166.816C305.15 165.904 305.326 165.2 305.662 164.672C306.11 163.984 306.862 163.488 308.478 162.72C310.686 161.68 311.342 161.104 311.342 160.096C311.342 159.136 310.462 158.48 309.166 158.48C307.614 158.48 306.654 159.344 306.526 160.896L304.974 160.784C305.054 159.616 305.454 158.704 306.206 158.032C306.958 157.36 307.95 157.024 309.166 157.024C311.294 157.024 312.91 158.352 312.91 160.096C312.91 160.88 312.67 161.552 312.174 162.112C311.678 162.656 310.846 163.2 309.646 163.76C308.734 164.192 308.11 164.512 307.774 164.72C307.454 164.928 307.23 165.136 307.102 165.376C306.958 165.632 306.894 165.92 306.878 166.544ZM313.907 162.624C313.907 159.168 315.715 157.024 318.403 157.024C321.075 157.024 322.915 159.168 322.915 162.624C322.915 166.064 321.075 168.224 318.403 168.224C315.747 168.224 313.907 166.08 313.907 162.624ZM321.331 162.624C321.331 160 320.211 158.48 318.403 158.48C316.595 158.48 315.475 160 315.475 162.624C315.475 165.248 316.595 166.768 318.403 166.768C320.211 166.768 321.331 165.248 321.331 162.624ZM324.796 168.688L323.74 168.24L329.5 156.08L330.556 156.56L324.796 168.688ZM333.487 166.544H339.359V168H331.759V166.816C331.759 165.904 331.935 165.2 332.271 164.672C332.719 163.984 333.471 163.488 335.087 162.72C337.295 161.68 337.951 161.104 337.951 160.096C337.951 159.136 337.071 158.48 335.775 158.48C334.223 158.48 333.263 159.344 333.135 160.896L331.583 160.784C331.663 159.616 332.063 158.704 332.815 158.032C333.567 157.36 334.559 157.024 335.775 157.024C337.903 157.024 339.519 158.352 339.519 160.096C339.519 160.88 339.279 161.552 338.783 162.112C338.287 162.656 337.455 163.2 336.255 163.76C335.343 164.192 334.719 164.512 334.383 164.72C334.063 164.928 333.839 165.136 333.711 165.376C333.567 165.632 333.503 165.92 333.487 166.544ZM340.517 162.624C340.517 159.168 342.325 157.024 345.013 157.024C347.685 157.024 349.525 159.168 349.525 162.624C349.525 166.064 347.685 168.224 345.013 168.224C342.357 168.224 340.517 166.08 340.517 162.624ZM347.941 162.624C347.941 160 346.821 158.48 345.013 158.48C343.205 158.48 342.085 160 342.085 162.624C342.085 165.248 343.205 166.768 345.013 166.768C346.821 166.768 347.941 165.248 347.941 162.624ZM352.362 166.544H358.234V168H350.634V166.816C350.634 165.904 350.81 165.2 351.146 164.672C351.594 163.984 352.346 163.488 353.962 162.72C356.17 161.68 356.826 161.104 356.826 160.096C356.826 159.136 355.946 158.48 354.65 158.48C353.098 158.48 352.138 159.344 352.01 160.896L350.458 160.784C350.538 159.616 350.938 158.704 351.69 158.032C352.442 157.36 353.434 157.024 354.65 157.024C356.778 157.024 358.394 158.352 358.394 160.096C358.394 160.88 358.154 161.552 357.658 162.112C357.162 162.656 356.33 163.2 355.13 163.76C354.218 164.192 353.594 164.512 353.258 164.72C352.938 164.928 352.714 165.136 352.586 165.376C352.442 165.632 352.378 165.92 352.362 166.544ZM359.579 164.432L361.115 164.16C361.355 165.936 362.219 166.768 363.835 166.768C365.179 166.768 366.043 166.032 366.043 164.896C366.043 163.616 365.243 162.976 363.643 162.976H362.747V161.664H363.595C364.827 161.664 365.755 160.992 365.755 160.096C365.755 159.088 365.003 158.464 363.771 158.464C362.475 158.464 361.563 159.168 361.371 160.336L359.835 160.08C360.107 158.208 361.643 157.024 363.771 157.024C365.867 157.024 367.323 158.208 367.323 159.936C367.323 160.88 366.747 161.712 365.851 162.144V162.176C366.939 162.608 367.611 163.648 367.611 164.944C367.611 166.864 366.091 168.224 363.835 168.224C361.403 168.224 359.851 166.848 359.579 164.432Z" fill="white"/>
<path d="M1.5896 228V216.8H3.9576V228H1.5896ZM6.18335 228V216.8H8.61535L12.4073 223.92H12.4393V216.8H14.8073V228H12.3753L8.58335 220.88H8.55135V228H6.18335ZM23.6515 228L23.0595 226.256H18.7715L18.1795 228H15.8275L19.8275 216.8H22.0035L26.0035 228H23.6515ZM19.4915 224.176H22.3395L20.9315 220.048H20.8995L19.4915 224.176ZM26.0746 222.4C26.0746 218.864 28.0266 216.56 31.0186 216.56C33.3866 216.56 35.2266 218.192 35.4826 220.56L33.1626 220.944C32.9226 219.52 32.1546 218.72 31.0186 218.72C29.4026 218.72 28.4426 220.096 28.4426 222.4C28.4426 224.704 29.4026 226.08 31.0186 226.08C32.2186 226.08 32.9866 225.232 33.1946 223.68L35.5146 224.08C35.2266 226.592 33.4666 228.24 31.0186 228.24C28.0266 228.24 26.0746 225.936 26.0746 222.4ZM39.1332 228V218.976H35.8852V216.8H44.7332V218.976H41.5012V228H39.1332ZM46.2146 228V216.8H48.5826V228H46.2146ZM53.6563 228L49.6243 216.8H52.1203L54.8403 224.688H54.8723L57.5763 216.8H60.0883L56.0403 228H53.6563ZM61.0896 228V216.8H68.3056V218.976H63.4576V221.248H67.8736V223.328H63.4576V225.824H68.3216V228H61.0896ZM73.3365 224.304L75.6565 223.808C75.9605 225.472 76.6165 226.112 78.1045 226.112C79.2085 226.112 79.8325 225.712 79.8325 225.008C79.8325 224.224 79.3045 223.84 77.4325 223.2C76.1365 222.768 75.2085 222.288 74.6645 221.76C74.1205 221.232 73.8485 220.544 73.8485 219.728C73.8485 217.856 75.4165 216.56 77.6405 216.56C79.8325 216.56 81.5445 217.888 81.8965 219.856L79.5925 220.352C79.2885 219.216 78.6645 218.688 77.6405 218.688C76.7605 218.688 76.1845 219.088 76.1845 219.712C76.1845 220.288 76.6645 220.608 78.3285 221.168C79.7205 221.648 80.7125 222.176 81.3045 222.768C81.8965 223.36 82.2005 224.096 82.2005 225.008C82.2005 226.944 80.5205 228.24 78.0725 228.24C75.4005 228.24 73.7365 226.864 73.3365 224.304ZM83.5252 224.304V216.8H85.8932V224.144C85.8932 225.44 86.5332 226.08 87.8292 226.08C89.1252 226.08 89.7652 225.456 89.7652 224.176V216.8H92.1332V224.304C92.1332 226.784 90.5332 228.24 87.8292 228.24C85.1252 228.24 83.5252 226.784 83.5252 224.304ZM94.2615 228V216.8H99.1255C101.061 216.8 102.453 218.064 102.453 219.808C102.453 220.72 102.021 221.472 101.317 221.904V221.936C102.277 222.384 102.869 223.344 102.869 224.512C102.869 226.864 101.477 228 98.6135 228H94.2615ZM96.6295 221.264H98.7895C99.6375 221.264 100.101 220.848 100.101 220.08C100.101 219.328 99.6375 218.912 98.7895 218.912H96.6295V221.264ZM96.6295 225.888H99.0455C100.053 225.888 100.517 225.44 100.517 224.496C100.517 223.616 100.005 223.136 99.0615 223.136H96.6295V225.888ZM103.649 224.304L105.969 223.808C106.273 225.472 106.929 226.112 108.417 226.112C109.521 226.112 110.145 225.712 110.145 225.008C110.145 224.224 109.617 223.84 107.745 223.2C106.449 222.768 105.521 222.288 104.977 221.76C104.433 221.232 104.161 220.544 104.161 219.728C104.161 217.856 105.729 216.56 107.953 216.56C110.145 216.56 111.857 217.888 112.209 219.856L109.905 220.352C109.601 219.216 108.977 218.688 107.953 218.688C107.073 218.688 106.497 219.088 106.497 219.712C106.497 220.288 106.977 220.608 108.641 221.168C110.033 221.648 111.025 222.176 111.617 222.768C112.209 223.36 112.513 224.096 112.513 225.008C112.513 226.944 110.833 228.24 108.385 228.24C105.713 228.24 104.049 226.864 103.649 224.304ZM113.278 222.4C113.278 218.864 115.23 216.56 118.222 216.56C120.59 216.56 122.43 218.192 122.686 220.56L120.366 220.944C120.126 219.52 119.358 218.72 118.222 218.72C116.606 218.72 115.646 220.096 115.646 222.4C115.646 224.704 116.606 226.08 118.222 226.08C119.422 226.08 120.19 225.232 120.398 223.68L122.718 224.08C122.43 226.592 120.67 228.24 118.222 228.24C115.23 228.24 113.278 225.936 113.278 222.4ZM130.297 223.808L132.569 228H130.025L127.913 224.064H126.473V228H124.105V216.8H128.665C131.033 216.8 132.489 218.176 132.489 220.416C132.489 222.032 131.689 223.264 130.297 223.792V223.808ZM126.473 221.904H128.377C129.513 221.904 130.121 221.376 130.121 220.4C130.121 219.44 129.545 218.96 128.377 218.96H126.473V221.904ZM134.074 228V216.8H136.442V228H134.074ZM138.668 228V216.8H143.26C145.644 216.8 147.148 218.192 147.148 220.496C147.148 222.816 145.676 224.176 143.228 224.176H141.036V228H138.668ZM141.036 222H143.196C144.156 222 144.78 221.424 144.78 220.48C144.78 219.472 144.252 218.96 143.212 218.96H141.036V222ZM151.024 228V218.976H147.776V216.8H156.624V218.976H153.392V228H151.024ZM158.105 228V216.8H160.473V228H158.105ZM162.059 222.4C162.059 218.88 164.011 216.56 167.003 216.56C169.979 216.56 171.963 218.88 171.963 222.4C171.963 225.92 169.979 228.24 167.003 228.24C164.011 228.24 162.059 225.92 162.059 222.4ZM169.595 222.4C169.595 220.096 168.603 218.72 167.003 218.72C165.403 218.72 164.427 220.096 164.427 222.4C164.427 224.704 165.403 226.08 167.003 226.08C168.619 226.08 169.595 224.704 169.595 222.4ZM173.527 228V216.8H175.959L179.751 223.92H179.783V216.8H182.151V228H179.719L175.927 220.88H175.895V228H173.527ZM183.555 224.304L185.875 223.808C186.179 225.472 186.835 226.112 188.323 226.112C189.427 226.112 190.051 225.712 190.051 225.008C190.051 224.224 189.523 223.84 187.651 223.2C186.355 222.768 185.427 222.288 184.883 221.76C184.339 221.232 184.067 220.544 184.067 219.728C184.067 217.856 185.635 216.56 187.859 216.56C190.051 216.56 191.763 217.888 192.115 219.856L189.811 220.352C189.507 219.216 188.883 218.688 187.859 218.688C186.979 218.688 186.403 219.088 186.403 219.712C186.403 220.288 186.883 220.608 188.547 221.168C189.939 221.648 190.931 222.176 191.523 222.768C192.115 223.36 192.419 224.096 192.419 225.008C192.419 226.944 190.739 228.24 188.291 228.24C185.619 228.24 183.955 226.864 183.555 224.304Z" fill="white"/>
<g clip-path="url(#clip1_6879_2303)">
<path d="M0.485596 259C0.485596 251.458 0.485596 247.686 2.82874 245.343C5.17189 243 8.94312 243 16.4856 243H461.486V280H0.485596V259Z" fill="white" fill-opacity="0.7"/>
<path d="M21.5356 266V256.2H25.4696C27.5416 256.2 28.8296 257.404 28.8296 259.35C28.8296 261.324 27.5696 262.486 25.4556 262.486H23.2856V266H21.5356ZM23.2856 260.876H25.4276C26.4776 260.876 27.0796 260.316 27.0796 259.35C27.0796 258.328 26.5336 257.81 25.4276 257.81H23.2856V260.876ZM35.1752 262.192V262.206L37.2332 266H35.3152L33.3692 262.36H31.8852V266H30.1352V256.2H33.9712C36.0292 256.2 37.2892 257.362 37.2892 259.266C37.2892 260.736 36.5192 261.8 35.1752 262.192ZM31.8852 260.75H33.7752C34.9372 260.75 35.5392 260.232 35.5392 259.266C35.5392 258.3 34.9512 257.81 33.7752 257.81H31.8852V260.75ZM38.2158 261.1C38.2158 258.034 39.9098 255.99 42.4718 255.99C45.0338 255.99 46.7138 258.034 46.7138 261.1C46.7138 264.166 45.0338 266.21 42.4718 266.21C39.9098 266.21 38.2158 264.166 38.2158 261.1ZM44.9638 261.1C44.9638 258.93 44.0258 257.6 42.4718 257.6C40.9178 257.6 39.9658 258.93 39.9658 261.1C39.9658 263.284 40.9038 264.6 42.4718 264.6C44.0258 264.6 44.9638 263.27 44.9638 261.1ZM48.2504 266V256.2H51.5124C54.1024 256.2 55.7824 258.062 55.7824 261.1C55.7824 264.236 54.1164 266 51.4844 266H48.2504ZM50.0004 264.39H51.4704C53.0944 264.39 54.0324 263.298 54.0324 261.1C54.0324 258.972 53.0804 257.81 51.4984 257.81H50.0004V264.39ZM57.2586 262.78V256.2H59.0086V262.668C59.0086 263.956 59.6386 264.6 60.9126 264.6C62.2006 264.6 62.8446 263.97 62.8446 262.696V256.2H64.5946V262.78C64.5946 264.95 63.2506 266.21 60.9126 266.21C58.6026 266.21 57.2586 264.95 57.2586 262.78ZM66.0654 261.1C66.0654 258.034 67.7594 255.99 70.3214 255.99C72.3794 255.99 73.9054 257.39 74.1574 259.462L72.4354 259.742C72.1974 258.356 71.4554 257.6 70.3214 257.6C68.7534 257.6 67.8154 258.916 67.8154 261.1C67.8154 263.284 68.7534 264.6 70.3214 264.6C71.5114 264.6 72.2674 263.802 72.4494 262.276L74.1854 262.556C73.9614 264.782 72.4494 266.21 70.3214 266.21C67.7454 266.21 66.0654 264.194 66.0654 261.1ZM77.6568 266V257.81H74.7448V256.2H82.3188V257.81H79.4068V266H77.6568ZM87.393 266V256.2H89.255L92.951 263.046H92.979V256.2H94.729V266H92.867L89.171 259.154H89.143V266H87.393ZM102.637 266L102.063 264.32H98.0866L97.5126 266H95.7486L99.2766 256.2H100.887L104.401 266H102.637ZM98.6186 262.78H101.531L100.089 258.622H100.061L98.6186 262.78ZM105.426 266V256.2H107.442L110.34 263.2H110.368L113.28 256.2H115.296V266H113.574V259.308H113.546L110.732 266H109.99L107.176 259.308H107.148V266H105.426ZM117.403 266V256.2H123.563V257.81H119.153V260.204H123.171V261.758H119.153V264.39H123.563V266H117.403Z" fill="black"/>
<path d="M280.976 261.1C280.976 258.034 282.67 255.99 285.232 255.99C287.29 255.99 288.816 257.39 289.068 259.462L287.346 259.742C287.108 258.356 286.366 257.6 285.232 257.6C283.664 257.6 282.726 258.916 282.726 261.1C282.726 263.284 283.664 264.6 285.232 264.6C286.422 264.6 287.178 263.802 287.36 262.276L289.096 262.556C288.872 264.782 287.36 266.21 285.232 266.21C282.656 266.21 280.976 264.194 280.976 261.1ZM295.531 262.192V262.206L297.589 266H295.671L293.725 262.36H292.241V266H290.491V256.2H294.327C296.385 256.2 297.645 257.362 297.645 259.266C297.645 260.736 296.875 261.8 295.531 262.192ZM292.241 260.75H294.131C295.293 260.75 295.895 260.232 295.895 259.266C295.895 258.3 295.307 257.81 294.131 257.81H292.241V260.75ZM299.131 266V256.2H305.291V257.81H300.881V260.204H304.899V261.758H300.881V264.39H305.291V266H299.131ZM312.775 266L312.201 264.32H308.225L307.651 266H305.887L309.415 256.2H311.025L314.539 266H312.775ZM308.757 262.78H311.669L310.227 258.622H310.199L308.757 262.78ZM316.424 266V257.81H313.512V256.2H321.086V257.81H318.174V266H316.424ZM322.524 266V256.2H328.684V257.81H324.274V260.204H328.292V261.758H324.274V264.39H328.684V266H322.524ZM330.358 266V256.2H333.62C336.21 256.2 337.89 258.062 337.89 261.1C337.89 264.236 336.224 266 333.592 266H330.358ZM332.108 264.39H333.578C335.202 264.39 336.14 263.298 336.14 261.1C336.14 258.972 335.188 257.81 333.606 257.81H332.108V264.39Z" fill="black"/>
<rect width="461" height="39" transform="translate(0.485596 280)" fill="white" fill-opacity="0.25"/>
<path d="M21.7816 304V292.8H26.1976C28.5656 292.8 29.9736 294.144 29.9736 296.32C29.9736 298.512 28.5656 299.824 26.1816 299.824H23.4296V304H21.7816ZM23.4296 298.288H26.1176C27.5896 298.288 28.3256 297.632 28.3256 296.32C28.3256 294.976 27.6056 294.336 26.1336 294.336H23.4296V298.288ZM31.3053 304V295.52H32.7773V296.224H32.8093C33.1453 295.696 33.8013 295.376 34.5853 295.376C34.8893 295.376 35.2093 295.424 35.5293 295.504L35.2253 297.072C34.8893 296.976 34.6013 296.928 34.3453 296.928C33.3693 296.928 32.8733 297.6 32.8733 299.072V304H31.3053ZM35.9385 299.76C35.9385 297.12 37.5545 295.28 39.8745 295.28C42.1785 295.28 43.7145 297.024 43.7145 299.568V300.224H37.5225C37.5385 300.976 37.7625 301.616 38.1945 302.112C38.6265 302.608 39.1865 302.848 39.8745 302.848C40.9465 302.848 41.5865 302.432 42.2905 301.296L43.5065 302.112C42.7545 303.52 41.5065 304.24 39.8905 304.24C37.5385 304.24 35.9385 302.432 35.9385 299.76ZM37.5545 299.024H42.1625C42.0985 297.632 41.2185 296.672 39.8745 296.672C38.5945 296.672 37.5865 297.744 37.5545 299.024ZM45.3522 304V295.52H46.8562V296.192H46.8882C47.3362 295.632 48.1682 295.28 49.0002 295.28C49.8962 295.28 50.7442 295.696 51.1922 296.336H51.2242C51.8162 295.68 52.6322 295.28 53.5442 295.28C55.2722 295.28 56.5682 296.48 56.5682 298.176V304H55.0322V298.432C55.0322 297.408 54.3762 296.736 53.3682 296.736C52.3602 296.736 51.7042 297.456 51.7042 298.528V304H50.2162V298.432C50.2162 297.408 49.5442 296.736 48.5682 296.736C47.5442 296.736 46.8882 297.456 46.8882 298.528V304H45.3522ZM58.446 304V295.52H60.014V304H58.446ZM58.366 294.048V292.4H60.078V294.048H58.366ZM61.786 301.04V295.52H63.354V300.752C63.354 302.112 63.978 302.784 65.258 302.784C66.426 302.784 67.194 301.984 67.194 300.752V295.52H68.762V304H67.258V303.248H67.21C66.698 303.872 65.77 304.24 64.794 304.24C62.89 304.24 61.786 303.072 61.786 301.04ZM70.7116 304V295.52H72.2156V296.192H72.2476C72.6956 295.632 73.5276 295.28 74.3596 295.28C75.2556 295.28 76.1036 295.696 76.5516 296.336H76.5836C77.1756 295.68 77.9916 295.28 78.9036 295.28C80.6316 295.28 81.9276 296.48 81.9276 298.176V304H80.3916V298.432C80.3916 297.408 79.7356 296.736 78.7276 296.736C77.7196 296.736 77.0636 297.456 77.0636 298.528V304H75.5756V298.432C75.5756 297.408 74.9036 296.736 73.9276 296.736C72.9036 296.736 72.2476 297.456 72.2476 298.528V304H70.7116ZM87.5753 300.304L89.1913 299.984C89.4313 301.888 90.3753 302.72 92.2473 302.72C93.6553 302.72 94.5513 302.096 94.5513 301.136C94.5513 300.096 93.8793 299.552 91.6873 298.848C88.9993 297.968 88.1033 297.136 88.1033 295.584C88.1033 293.808 89.6073 292.56 91.7513 292.56C92.8233 292.56 93.7353 292.864 94.4873 293.456C95.2393 294.048 95.6873 294.832 95.8633 295.824L94.2633 296.176C93.9113 294.784 93.0793 294.08 91.7513 294.08C90.5193 294.08 89.7353 294.672 89.7353 295.584C89.7353 296.336 90.3273 296.784 92.2313 297.376C95.1273 298.336 96.1833 299.312 96.1833 301.104C96.1833 302.976 94.5673 304.24 92.2153 304.24C89.5113 304.24 87.8793 302.848 87.5753 300.304ZM101.889 296.928H99.8095V301.76C99.8095 302.32 100.033 302.512 100.721 302.512H101.489V304H100.577C98.8655 304 98.2415 303.408 98.2415 301.792V296.928H96.9135V295.52H98.2415V293.536H99.8095V295.52H101.889V296.928ZM103.29 304V295.52H104.762V296.224H104.794C105.13 295.696 105.786 295.376 106.57 295.376C106.874 295.376 107.194 295.424 107.514 295.504L107.21 297.072C106.874 296.976 106.586 296.928 106.33 296.928C105.354 296.928 104.858 297.6 104.858 299.072V304H103.29ZM107.923 299.76C107.923 297.12 109.539 295.28 111.859 295.28C114.163 295.28 115.699 297.024 115.699 299.568V300.224H109.507C109.523 300.976 109.747 301.616 110.179 302.112C110.611 302.608 111.171 302.848 111.859 302.848C112.931 302.848 113.571 302.432 114.275 301.296L115.491 302.112C114.739 303.52 113.491 304.24 111.875 304.24C109.523 304.24 107.923 302.432 107.923 299.76ZM109.539 299.024H114.147C114.083 297.632 113.203 296.672 111.859 296.672C110.579 296.672 109.571 297.744 109.539 299.024ZM116.892 301.792C116.892 300.368 117.724 299.616 119.884 299.104C121.42 298.72 121.9 298.416 121.9 297.792C121.9 297.104 121.308 296.656 120.348 296.656C119.308 296.656 118.588 297.264 118.38 298.336L116.86 298.016C117.004 297.184 117.388 296.528 118.012 296.032C118.652 295.536 119.436 295.28 120.348 295.28C122.316 295.28 123.532 296.384 123.532 298.176V304H122.092V303.184H122.06C121.596 303.84 120.716 304.24 119.676 304.24C117.996 304.24 116.892 303.28 116.892 301.792ZM121.98 301.136V299.456H121.948C121.804 299.824 121.308 300.08 120.284 300.352C118.94 300.688 118.428 301.056 118.428 301.696C118.428 302.416 118.924 302.832 119.868 302.832C121.1 302.832 121.98 302.112 121.98 301.136ZM125.399 304V295.52H126.903V296.192H126.935C127.383 295.632 128.215 295.28 129.047 295.28C129.943 295.28 130.791 295.696 131.239 296.336H131.271C131.863 295.68 132.679 295.28 133.591 295.28C135.319 295.28 136.615 296.48 136.615 298.176V304H135.079V298.432C135.079 297.408 134.423 296.736 133.415 296.736C132.407 296.736 131.751 297.456 131.751 298.528V304H130.263V298.432C130.263 297.408 129.591 296.736 128.615 296.736C127.591 296.736 126.935 297.456 126.935 298.528V304H125.399ZM138.493 304V295.52H140.061V304H138.493ZM138.413 294.048V292.4H140.125V294.048H138.413ZM141.993 304V295.52H143.497V296.272H143.529C144.041 295.68 144.985 295.28 145.881 295.28C147.817 295.28 149.081 296.544 149.081 298.528V304H147.513V298.768C147.513 297.504 146.793 296.736 145.577 296.736C144.361 296.736 143.561 297.552 143.561 298.768V304H141.993ZM151.234 305.616L152.562 304.864C153.122 306 153.73 306.416 154.802 306.416C156.098 306.416 156.882 305.536 156.882 304.112V303.184H156.85C156.386 303.84 155.49 304.24 154.418 304.24C152.194 304.24 150.626 302.384 150.626 299.76C150.626 297.152 152.226 295.296 154.434 295.296C155.394 295.296 156.29 295.68 156.85 296.336H156.882V295.52H158.418V304.192C158.418 306.368 156.978 307.84 154.802 307.84C153.186 307.84 151.858 307.008 151.234 305.616ZM156.85 300.496V299.04C156.85 297.776 155.842 296.752 154.562 296.752C153.138 296.752 152.194 297.92 152.194 299.76C152.194 301.616 153.138 302.784 154.61 302.784C155.858 302.784 156.85 301.76 156.85 300.496ZM164.956 299.28C164.956 296.336 165.98 293.84 168.172 291.408L169.196 292.224C168.252 293.376 167.564 294.512 167.148 295.616C166.732 296.72 166.524 297.936 166.524 299.28C166.524 300.608 166.732 301.84 167.148 302.944C167.564 304.048 168.252 305.168 169.196 306.336L168.172 307.152C165.98 304.72 164.956 302.224 164.956 299.28ZM170.969 304V292.8H173.001L176.473 301.264H176.505L179.977 292.8H182.009V304H180.377V295.6H180.345L176.825 304H176.137L172.633 295.6H172.601V304H170.969ZM183.938 299.76C183.938 297.088 185.57 295.28 187.986 295.28C190.402 295.28 192.034 297.088 192.034 299.76C192.034 302.432 190.402 304.24 187.986 304.24C185.57 304.24 183.938 302.432 183.938 299.76ZM190.466 299.76C190.466 297.904 189.522 296.736 187.986 296.736C186.45 296.736 185.506 297.904 185.506 299.76C185.506 301.616 186.45 302.784 187.986 302.784C189.522 302.784 190.466 301.616 190.466 299.76ZM193.665 304V295.52H195.169V296.272H195.201C195.713 295.68 196.657 295.28 197.553 295.28C199.489 295.28 200.753 296.544 200.753 298.528V304H199.185V298.768C199.185 297.504 198.465 296.736 197.249 296.736C196.033 296.736 195.233 297.552 195.233 298.768V304H193.665ZM206.718 296.928H204.638V301.76C204.638 302.32 204.862 302.512 205.55 302.512H206.318V304H205.406C203.694 304 203.07 303.408 203.07 301.792V296.928H201.742V295.52H203.07V293.536H204.638V295.52H206.718V296.928ZM208.118 304V292.32H209.686V296.272H209.718C210.214 295.68 211.11 295.28 212.006 295.28C213.942 295.28 215.206 296.544 215.206 298.48V304H213.638V298.768C213.638 297.504 212.918 296.736 211.702 296.736C210.486 296.736 209.686 297.552 209.686 298.768V304H208.118ZM217.071 304V292.32H218.639V304H217.071ZM221.211 307.6L222.971 303.36L219.707 295.52H221.355L223.755 301.552H223.787L226.219 295.52H227.867L222.827 307.6H221.211ZM228.969 307.152L227.945 306.336C228.889 305.168 229.577 304.048 229.993 302.944C230.409 301.84 230.617 300.608 230.617 299.28C230.617 297.936 230.409 296.72 229.993 295.616C229.577 294.512 228.889 293.376 227.945 292.224L228.969 291.408C231.161 293.84 232.185 296.336 232.185 299.28C232.185 302.224 231.161 304.72 228.969 307.152Z" fill="white"/>
<path d="M283.558 304V295.008L280.998 296.576V294.912L283.702 293.248H285.126V304H283.558ZM287.298 298.624C287.298 295.168 289.106 293.024 291.794 293.024C294.466 293.024 296.306 295.168 296.306 298.624C296.306 302.064 294.466 304.224 291.794 304.224C289.138 304.224 287.298 302.08 287.298 298.624ZM294.722 298.624C294.722 296 293.602 294.48 291.794 294.48C289.986 294.48 288.866 296 288.866 298.624C288.866 301.248 289.986 302.768 291.794 302.768C293.602 302.768 294.722 301.248 294.722 298.624ZM298.187 304.688L297.131 304.24L302.891 292.08L303.947 292.56L298.187 304.688ZM306.878 302.544H312.75V304H305.15V302.816C305.15 301.904 305.326 301.2 305.662 300.672C306.11 299.984 306.862 299.488 308.478 298.72C310.686 297.68 311.342 297.104 311.342 296.096C311.342 295.136 310.462 294.48 309.166 294.48C307.614 294.48 306.654 295.344 306.526 296.896L304.974 296.784C305.054 295.616 305.454 294.704 306.206 294.032C306.958 293.36 307.95 293.024 309.166 293.024C311.294 293.024 312.91 294.352 312.91 296.096C312.91 296.88 312.67 297.552 312.174 298.112C311.678 298.656 310.846 299.2 309.646 299.76C308.734 300.192 308.11 300.512 307.774 300.72C307.454 300.928 307.23 301.136 307.102 301.376C306.958 301.632 306.894 301.92 306.878 302.544ZM313.907 298.624C313.907 295.168 315.715 293.024 318.403 293.024C321.075 293.024 322.915 295.168 322.915 298.624C322.915 302.064 321.075 304.224 318.403 304.224C315.747 304.224 313.907 302.08 313.907 298.624ZM321.331 298.624C321.331 296 320.211 294.48 318.403 294.48C316.595 294.48 315.475 296 315.475 298.624C315.475 301.248 316.595 302.768 318.403 302.768C320.211 302.768 321.331 301.248 321.331 298.624ZM324.796 304.688L323.74 304.24L329.5 292.08L330.556 292.56L324.796 304.688ZM333.487 302.544H339.359V304H331.759V302.816C331.759 301.904 331.935 301.2 332.271 300.672C332.719 299.984 333.471 299.488 335.087 298.72C337.295 297.68 337.951 297.104 337.951 296.096C337.951 295.136 337.071 294.48 335.775 294.48C334.223 294.48 333.263 295.344 333.135 296.896L331.583 296.784C331.663 295.616 332.063 294.704 332.815 294.032C333.567 293.36 334.559 293.024 335.775 293.024C337.903 293.024 339.519 294.352 339.519 296.096C339.519 296.88 339.279 297.552 338.783 298.112C338.287 298.656 337.455 299.2 336.255 299.76C335.343 300.192 334.719 300.512 334.383 300.72C334.063 300.928 333.839 301.136 333.711 301.376C333.567 301.632 333.503 301.92 333.487 302.544ZM340.517 298.624C340.517 295.168 342.325 293.024 345.013 293.024C347.685 293.024 349.525 295.168 349.525 298.624C349.525 302.064 347.685 304.224 345.013 304.224C342.357 304.224 340.517 302.08 340.517 298.624ZM347.941 298.624C347.941 296 346.821 294.48 345.013 294.48C343.205 294.48 342.085 296 342.085 298.624C342.085 301.248 343.205 302.768 345.013 302.768C346.821 302.768 347.941 301.248 347.941 298.624ZM352.362 302.544H358.234V304H350.634V302.816C350.634 301.904 350.81 301.2 351.146 300.672C351.594 299.984 352.346 299.488 353.962 298.72C356.17 297.68 356.826 297.104 356.826 296.096C356.826 295.136 355.946 294.48 354.65 294.48C353.098 294.48 352.138 295.344 352.01 296.896L350.458 296.784C350.538 295.616 350.938 294.704 351.69 294.032C352.442 293.36 353.434 293.024 354.65 293.024C356.778 293.024 358.394 294.352 358.394 296.096C358.394 296.88 358.154 297.552 357.658 298.112C357.162 298.656 356.33 299.2 355.13 299.76C354.218 300.192 353.594 300.512 353.258 300.72C352.938 300.928 352.714 301.136 352.586 301.376C352.442 301.632 352.378 301.92 352.362 302.544ZM359.579 300.432L361.115 300.16C361.355 301.936 362.219 302.768 363.835 302.768C365.179 302.768 366.043 302.032 366.043 300.896C366.043 299.616 365.243 298.976 363.643 298.976H362.747V297.664H363.595C364.827 297.664 365.755 296.992 365.755 296.096C365.755 295.088 365.003 294.464 363.771 294.464C362.475 294.464 361.563 295.168 361.371 296.336L359.835 296.08C360.107 294.208 361.643 293.024 363.771 293.024C365.867 293.024 367.323 294.208 367.323 295.936C367.323 296.88 366.747 297.712 365.851 298.144V298.176C366.939 298.608 367.611 299.648 367.611 300.944C367.611 302.864 366.091 304.224 363.835 304.224C361.403 304.224 359.851 302.848 359.579 300.432Z" fill="white"/>
</g>
</g>
<defs>
<clipPath id="clip0_6879_2303">
<rect width="465" height="396" fill="white" transform="translate(0.485596)"/>
</clipPath>
<clipPath id="clip1_6879_2303">
<rect width="461" height="153" fill="white" transform="translate(0.485596 243)"/>
</clipPath>
</defs>
</svg>
