<svg width="331" height="310" viewBox="0 0 331 310" fill="none" xmlns="http://www.w3.org/2000/svg">
<rect x="0.485596" width="330" height="330" rx="8" fill="white" fill-opacity="0.15"/>
<rect x="15.4856" y="15" width="300" height="122" rx="3.80561" fill="white" fill-opacity="0.6"/>
<path d="M37.6216 44.72L31.3976 40.976V39.792L37.6216 36.048L38.4056 37.28L33.1576 40.384L38.4056 43.488L37.6216 44.72ZM39.8097 43.152L41.2817 42.832C41.5537 44.256 42.2257 44.848 43.6337 44.848C44.6737 44.848 45.3137 44.448 45.3137 43.808C45.3137 43.056 44.7537 42.736 43.1377 42.24C41.0897 41.664 40.2257 41.04 40.2257 39.744C40.2257 38.336 41.5217 37.28 43.2657 37.28C44.9777 37.28 46.3057 38.256 46.6417 39.792L45.1697 40.176C44.8817 39.168 44.2417 38.672 43.2657 38.672C42.3537 38.672 41.7457 39.088 41.7457 39.712C41.7457 40.24 42.2257 40.512 43.6497 40.912C45.8737 41.568 46.8497 42.272 46.8497 43.744C46.8497 45.264 45.5697 46.24 43.6337 46.24C41.4417 46.24 40.0497 45.136 39.8097 43.152ZM48.001 41.76C48.001 39.104 49.633 37.28 51.985 37.28C52.961 37.28 53.793 37.568 54.465 38.128C55.153 38.688 55.569 39.44 55.713 40.384L54.209 40.688C54.001 39.456 53.185 38.736 51.985 38.736C50.513 38.736 49.569 39.904 49.569 41.76C49.569 43.616 50.513 44.784 51.985 44.784C53.185 44.784 53.969 44.096 54.209 42.832L55.713 43.136C55.569 44.08 55.153 44.848 54.465 45.408C53.793 45.968 52.961 46.24 51.985 46.24C49.633 46.24 48.001 44.416 48.001 41.76ZM57.2585 46V37.52H58.7305V38.224H58.7625C59.0985 37.696 59.7545 37.376 60.5385 37.376C60.8425 37.376 61.1625 37.424 61.4825 37.504L61.1785 39.072C60.8425 38.976 60.5545 38.928 60.2985 38.928C59.3225 38.928 58.8265 39.6 58.8265 41.072V46H57.2585ZM62.696 46V37.52H64.264V46H62.696ZM62.616 36.048V34.4H64.328V36.048H62.616ZM66.196 49.6V37.52H67.732V38.304H67.764C68.324 37.68 69.204 37.28 70.18 37.28C72.388 37.28 73.988 39.136 73.988 41.76C73.988 44.384 72.388 46.24 70.196 46.24C69.22 46.24 68.308 45.824 67.796 45.232H67.764V49.6H66.196ZM72.42 41.76C72.42 39.904 71.508 38.736 70.052 38.736C68.772 38.736 67.764 39.76 67.764 41.008V42.496C67.764 43.76 68.756 44.784 70.004 44.784C71.476 44.784 72.42 43.616 72.42 41.76ZM79.7176 38.928H77.6376V43.76C77.6376 44.32 77.8616 44.512 78.5496 44.512H79.3176V46H78.4056C76.6936 46 76.0696 45.408 76.0696 43.792V38.928H74.7416V37.52H76.0696V35.536H77.6376V37.52H79.7176V38.928ZM85.3678 46V37.52H86.9358V46H85.3678ZM85.2878 36.048V34.4H86.9998V36.048H85.2878ZM88.5478 41.76C88.5478 39.136 90.1478 37.28 92.3558 37.28C93.3158 37.28 94.1798 37.664 94.7398 38.288H94.7718V34.32H96.3398V46H94.8678V45.184H94.8358C94.3078 45.84 93.3798 46.24 92.3398 46.24C90.1478 46.24 88.5478 44.384 88.5478 41.76ZM94.7718 42.496V41.008C94.7718 39.76 93.7638 38.736 92.4838 38.736C91.0278 38.736 90.1158 39.904 90.1158 41.76C90.1158 43.616 91.0598 44.784 92.5318 44.784C93.7798 44.784 94.7718 43.76 94.7718 42.496ZM102.476 39.536V38.16H109.564V39.536H102.476ZM102.476 42.592V41.216H109.564V42.592H102.476ZM111.942 38.688V37.84C112.518 37.712 112.742 37.424 112.742 36.8H111.862V34.8H114.022V36.544C114.022 37.84 113.302 38.576 111.942 38.688ZM114.87 38.688V37.84C115.446 37.712 115.67 37.424 115.67 36.8H114.79V34.8H116.95V36.544C116.95 37.84 116.23 38.576 114.87 38.688ZM118.267 41.76C118.267 39.104 119.899 37.28 122.251 37.28C123.227 37.28 124.059 37.568 124.731 38.128C125.419 38.688 125.835 39.44 125.979 40.384L124.475 40.688C124.267 39.456 123.451 38.736 122.251 38.736C120.779 38.736 119.835 39.904 119.835 41.76C119.835 43.616 120.779 44.784 122.251 44.784C123.451 44.784 124.235 44.096 124.475 42.832L125.979 43.136C125.835 44.08 125.419 44.848 124.731 45.408C124.059 45.968 123.227 46.24 122.251 46.24C119.899 46.24 118.267 44.416 118.267 41.76ZM127.204 41.76C127.204 39.088 128.836 37.28 131.252 37.28C133.668 37.28 135.3 39.088 135.3 41.76C135.3 44.432 133.668 46.24 131.252 46.24C128.836 46.24 127.204 44.432 127.204 41.76ZM133.732 41.76C133.732 39.904 132.788 38.736 131.252 38.736C129.716 38.736 128.772 39.904 128.772 41.76C128.772 43.616 129.716 44.784 131.252 44.784C132.788 44.784 133.732 43.616 133.732 41.76ZM136.93 46V37.52H138.498V46H136.93ZM136.85 36.048V34.4H138.562V36.048H136.85ZM140.43 46V37.52H141.934V38.272H141.966C142.478 37.68 143.422 37.28 144.318 37.28C146.254 37.28 147.518 38.544 147.518 40.528V46H145.95V40.768C145.95 39.504 145.23 38.736 144.014 38.736C142.798 38.736 141.998 39.552 141.998 40.768V46H140.43ZM148.903 43.152L150.375 42.832C150.647 44.256 151.319 44.848 152.727 44.848C153.767 44.848 154.407 44.448 154.407 43.808C154.407 43.056 153.847 42.736 152.231 42.24C150.183 41.664 149.319 41.04 149.319 39.744C149.319 38.336 150.615 37.28 152.359 37.28C154.071 37.28 155.399 38.256 155.735 39.792L154.263 40.176C153.975 39.168 153.335 38.672 152.359 38.672C151.447 38.672 150.839 39.088 150.839 39.712C150.839 40.24 151.319 40.512 152.743 40.912C154.967 41.568 155.943 42.272 155.943 43.744C155.943 45.264 154.663 46.24 152.727 46.24C150.535 46.24 149.143 45.136 148.903 43.152ZM157.255 43.04V37.52H158.823V42.752C158.823 44.112 159.447 44.784 160.727 44.784C161.895 44.784 162.663 43.984 162.663 42.752V37.52H164.231V46H162.727V45.248H162.679C162.167 45.872 161.239 46.24 160.263 46.24C158.359 46.24 157.255 45.072 157.255 43.04ZM167.684 45.184H167.652V46H166.18V34.32H167.748V38.288H167.78C168.34 37.664 169.204 37.28 170.164 37.28C172.372 37.28 173.972 39.136 173.972 41.76C173.972 44.384 172.372 46.24 170.18 46.24C169.14 46.24 168.212 45.84 167.684 45.184ZM172.404 41.76C172.404 39.904 171.492 38.736 170.036 38.736C168.756 38.736 167.748 39.76 167.748 41.008V42.496C167.748 43.76 168.74 44.784 169.988 44.784C171.46 44.784 172.404 43.616 172.404 41.76ZM175.581 42V40.528H179.853V42H175.581ZM181.107 43.152L182.579 42.832C182.851 44.256 183.523 44.848 184.931 44.848C185.971 44.848 186.611 44.448 186.611 43.808C186.611 43.056 186.051 42.736 184.435 42.24C182.387 41.664 181.523 41.04 181.523 39.744C181.523 38.336 182.819 37.28 184.563 37.28C186.275 37.28 187.603 38.256 187.939 39.792L186.467 40.176C186.179 39.168 185.539 38.672 184.563 38.672C183.651 38.672 183.043 39.088 183.043 39.712C183.043 40.24 183.523 40.512 184.947 40.912C187.171 41.568 188.147 42.272 188.147 43.744C188.147 45.264 186.867 46.24 184.931 46.24C182.739 46.24 181.347 45.136 181.107 43.152ZM189.298 41.76C189.298 39.104 190.93 37.28 193.282 37.28C194.258 37.28 195.09 37.568 195.762 38.128C196.45 38.688 196.866 39.44 197.01 40.384L195.506 40.688C195.298 39.456 194.482 38.736 193.282 38.736C191.81 38.736 190.866 39.904 190.866 41.76C190.866 43.616 191.81 44.784 193.282 44.784C194.482 44.784 195.266 44.096 195.506 42.832L197.01 43.136C196.866 44.08 196.45 44.848 195.762 45.408C195.09 45.968 194.258 46.24 193.282 46.24C190.93 46.24 189.298 44.416 189.298 41.76ZM198.555 46V37.52H200.027V38.224H200.059C200.395 37.696 201.051 37.376 201.835 37.376C202.139 37.376 202.459 37.424 202.779 37.504L202.475 39.072C202.139 38.976 201.851 38.928 201.595 38.928C200.619 38.928 200.123 39.6 200.123 41.072V46H198.555ZM203.993 46V37.52H205.561V46H203.993ZM203.913 36.048V34.4H205.625V36.048H203.913ZM207.493 49.6V37.52H209.029V38.304H209.061C209.621 37.68 210.501 37.28 211.477 37.28C213.685 37.28 215.285 39.136 215.285 41.76C215.285 44.384 213.685 46.24 211.493 46.24C210.517 46.24 209.605 45.824 209.093 45.232H209.061V49.6H207.493ZM213.717 41.76C213.717 39.904 212.805 38.736 211.349 38.736C210.069 38.736 209.061 39.76 209.061 41.008V42.496C209.061 43.76 210.053 44.784 211.301 44.784C212.773 44.784 213.717 43.616 213.717 41.76ZM221.014 38.928H218.934V43.76C218.934 44.32 219.158 44.512 219.846 44.512H220.614V46H219.702C217.99 46 217.366 45.408 217.366 43.792V38.928H216.038V37.52H217.366V35.536H218.934V37.52H221.014V38.928ZM222.801 38.688V37.84C223.377 37.712 223.601 37.424 223.601 36.8H222.721V34.8H224.881V36.544C224.881 37.84 224.161 38.576 222.801 38.688ZM225.729 38.688V37.84C226.305 37.712 226.529 37.424 226.529 36.8H225.649V34.8H227.809V36.544C227.809 37.84 227.089 38.576 225.729 38.688ZM31.1416 64.76C31.1416 62.136 32.7416 60.28 34.9496 60.28C35.9096 60.28 36.7736 60.664 37.3336 61.288H37.3656V57.32H38.9336V69H37.4616V68.184H37.4296C36.9016 68.84 35.9736 69.24 34.9336 69.24C32.7416 69.24 31.1416 67.384 31.1416 64.76ZM37.3656 65.496V64.008C37.3656 62.76 36.3576 61.736 35.0776 61.736C33.6216 61.736 32.7096 62.904 32.7096 64.76C32.7096 66.616 33.6536 67.784 35.1256 67.784C36.3736 67.784 37.3656 66.76 37.3656 65.496ZM40.5955 66.792C40.5955 65.368 41.4275 64.616 43.5875 64.104C45.1235 63.72 45.6035 63.416 45.6035 62.792C45.6035 62.104 45.0115 61.656 44.0515 61.656C43.0115 61.656 42.2915 62.264 42.0835 63.336L40.5635 63.016C40.7075 62.184 41.0915 61.528 41.7155 61.032C42.3555 60.536 43.1395 60.28 44.0515 60.28C46.0195 60.28 47.2355 61.384 47.2355 63.176V69H45.7955V68.184H45.7635C45.2995 68.84 44.4195 69.24 43.3795 69.24C41.6995 69.24 40.5955 68.28 40.5955 66.792ZM45.6835 66.136V64.456H45.6515C45.5075 64.824 45.0115 65.08 43.9875 65.352C42.6435 65.688 42.1315 66.056 42.1315 66.696C42.1315 67.416 42.6275 67.832 43.5715 67.832C44.8035 67.832 45.6835 67.112 45.6835 66.136ZM53.202 61.928H51.122V66.76C51.122 67.32 51.346 67.512 52.034 67.512H52.802V69H51.89C50.178 69 49.554 68.408 49.554 66.792V61.928H48.226V60.52H49.554V58.536H51.122V60.52H53.202V61.928ZM53.8767 66.792C53.8767 65.368 54.7087 64.616 56.8687 64.104C58.4047 63.72 58.8847 63.416 58.8847 62.792C58.8847 62.104 58.2927 61.656 57.3327 61.656C56.2927 61.656 55.5727 62.264 55.3647 63.336L53.8447 63.016C53.9887 62.184 54.3727 61.528 54.9967 61.032C55.6367 60.536 56.4207 60.28 57.3327 60.28C59.3007 60.28 60.5167 61.384 60.5167 63.176V69H59.0767V68.184H59.0447C58.5807 68.84 57.7007 69.24 56.6607 69.24C54.9807 69.24 53.8767 68.28 53.8767 66.792ZM58.9647 66.136V64.456H58.9327C58.7887 64.824 58.2927 65.08 57.2687 65.352C55.9247 65.688 55.4127 66.056 55.4127 66.696C55.4127 67.416 55.9087 67.832 56.8527 67.832C58.0847 67.832 58.9647 67.112 58.9647 66.136ZM62.1595 65V63.528H66.4315V65H62.1595ZM68.1647 69V57.32H69.7327V61.272H69.7647C70.2607 60.68 71.1567 60.28 72.0527 60.28C73.9887 60.28 75.2527 61.544 75.2527 63.48V69H73.6847V63.768C73.6847 62.504 72.9647 61.736 71.7487 61.736C70.5327 61.736 69.7327 62.552 69.7327 63.768V69H68.1647ZM76.8298 66.792C76.8298 65.368 77.6618 64.616 79.8218 64.104C81.3578 63.72 81.8378 63.416 81.8378 62.792C81.8378 62.104 81.2458 61.656 80.2858 61.656C79.2458 61.656 78.5258 62.264 78.3178 63.336L76.7978 63.016C76.9418 62.184 77.3258 61.528 77.9498 61.032C78.5898 60.536 79.3738 60.28 80.2858 60.28C82.2538 60.28 83.4698 61.384 83.4698 63.176V69H82.0298V68.184H81.9978C81.5338 68.84 80.6538 69.24 79.6138 69.24C77.9338 69.24 76.8298 68.28 76.8298 66.792ZM81.9178 66.136V64.456H81.8858C81.7418 64.824 81.2458 65.08 80.2218 65.352C78.8778 65.688 78.3658 66.056 78.3658 66.696C78.3658 67.416 78.8618 67.832 79.8058 67.832C81.0378 67.832 81.9178 67.112 81.9178 66.136ZM84.8566 66.152L86.3286 65.832C86.6006 67.256 87.2726 67.848 88.6806 67.848C89.7206 67.848 90.3606 67.448 90.3606 66.808C90.3606 66.056 89.8006 65.736 88.1846 65.24C86.1366 64.664 85.2726 64.04 85.2726 62.744C85.2726 61.336 86.5686 60.28 88.3126 60.28C90.0246 60.28 91.3526 61.256 91.6886 62.792L90.2166 63.176C89.9286 62.168 89.2886 61.672 88.3126 61.672C87.4006 61.672 86.7926 62.088 86.7926 62.712C86.7926 63.24 87.2726 63.512 88.6966 63.912C90.9206 64.568 91.8966 65.272 91.8966 66.744C91.8966 68.264 90.6166 69.24 88.6806 69.24C86.4886 69.24 85.0966 68.136 84.8566 66.152ZM93.3678 69V57.32H94.9358V61.272H94.9678C95.4638 60.68 96.3598 60.28 97.2558 60.28C99.1918 60.28 100.456 61.544 100.456 63.48V69H98.8878V63.768C98.8878 62.504 98.1678 61.736 96.9518 61.736C95.7358 61.736 94.9358 62.552 94.9358 63.768V69H93.3678ZM102.257 62.536V61.16H109.345V62.536H102.257ZM102.257 65.592V64.216H109.345V65.592H102.257ZM111.723 61.688V60.84C112.299 60.712 112.523 60.424 112.523 59.8H111.643V57.8H113.803V59.544C113.803 60.84 113.083 61.576 111.723 61.688ZM114.651 61.688V60.84C115.227 60.712 115.451 60.424 115.451 59.8H114.571V57.8H116.731V59.544C116.731 60.84 116.011 61.576 114.651 61.688ZM118.048 64.76C118.048 62.104 119.68 60.28 122.032 60.28C123.008 60.28 123.84 60.568 124.512 61.128C125.2 61.688 125.616 62.44 125.76 63.384L124.256 63.688C124.048 62.456 123.232 61.736 122.032 61.736C120.56 61.736 119.616 62.904 119.616 64.76C119.616 66.616 120.56 67.784 122.032 67.784C123.232 67.784 124.016 67.096 124.256 65.832L125.76 66.136C125.616 67.08 125.2 67.848 124.512 68.408C123.84 68.968 123.008 69.24 122.032 69.24C119.68 69.24 118.048 67.416 118.048 64.76ZM127.001 69V67.624L133.065 59.368V59.336H127.225V57.8H135.081V59.176L129.017 67.432V67.464H134.969V69H127.001ZM137.239 69L141.655 59.368V59.336H135.975V57.8H143.495V59.208L139.095 69H137.239ZM148.604 69V66.776H143.036V65.32L147.708 57.8H150.252V65.304H151.644V66.776H150.252V69H148.604ZM144.668 65.304H148.604V59.048H148.572L144.668 65.304ZM151.791 71.928V70.472H152.543C153.055 70.472 153.263 70.28 153.263 69.848V60.52H154.831V69.912C154.831 71.336 154.159 71.928 152.639 71.928H151.791ZM153.183 59.048V57.4H154.895V59.048H153.183ZM156.454 64.76C156.454 62.136 158.054 60.28 160.262 60.28C161.222 60.28 162.086 60.664 162.646 61.288H162.678V57.32H164.246V69H162.774V68.184H162.742C162.214 68.84 161.286 69.24 160.246 69.24C158.054 69.24 156.454 67.384 156.454 64.76ZM162.678 65.496V64.008C162.678 62.76 161.67 61.736 160.39 61.736C158.934 61.736 158.022 62.904 158.022 64.76C158.022 66.616 158.966 67.784 160.438 67.784C161.686 67.784 162.678 66.76 162.678 65.496ZM165.716 66.152L167.188 65.832C167.46 67.256 168.132 67.848 169.54 67.848C170.58 67.848 171.22 67.448 171.22 66.808C171.22 66.056 170.66 65.736 169.044 65.24C166.996 64.664 166.132 64.04 166.132 62.744C166.132 61.336 167.428 60.28 169.172 60.28C170.884 60.28 172.212 61.256 172.548 62.792L171.076 63.176C170.788 62.168 170.148 61.672 169.172 61.672C168.26 61.672 167.652 62.088 167.652 62.712C167.652 63.24 168.132 63.512 169.556 63.912C171.78 64.568 172.756 65.272 172.756 66.744C172.756 68.264 171.476 69.24 169.54 69.24C167.348 69.24 165.956 68.136 165.716 66.152ZM173.603 65.848C173.603 64.488 174.371 63.384 175.635 62.872V62.84C174.691 62.312 174.211 61.544 174.211 60.552C174.211 58.824 175.763 57.56 177.875 57.56C180.003 57.56 181.523 58.824 181.523 60.552C181.523 61.544 181.043 62.312 180.099 62.84V62.872C181.363 63.384 182.115 64.488 182.115 65.848C182.115 67.832 180.419 69.24 177.875 69.24C175.315 69.24 173.603 67.832 173.603 65.848ZM179.907 60.648C179.907 59.672 179.075 59 177.875 59C176.659 59 175.843 59.672 175.843 60.648C175.843 61.608 176.643 62.248 177.875 62.248C179.075 62.248 179.907 61.608 179.907 60.648ZM180.419 65.704C180.419 64.488 179.427 63.704 177.875 63.704C176.291 63.704 175.315 64.488 175.315 65.704C175.315 66.92 176.275 67.656 177.875 67.656C179.459 67.656 180.419 66.92 180.419 65.704ZM183.766 69V57.8H187.366C190.246 57.8 192.214 59.896 192.214 63.384C192.214 67.096 190.358 69 187.302 69H183.766ZM185.414 67.464H187.238C189.462 67.464 190.566 66.104 190.566 63.384C190.566 60.744 189.35 59.336 187.318 59.336H185.414V67.464ZM195.932 69V59.64L193.388 61.256V59.528L196.092 57.8H197.58V69H195.932ZM201.598 67.464H207.422V69H199.79V67.752C199.79 66.808 199.966 66.072 200.318 65.544C200.766 64.84 201.502 64.28 203.102 63.496C205.31 62.392 205.934 61.816 205.934 60.76C205.934 59.784 205.086 59.096 203.822 59.096C202.286 59.096 201.374 59.992 201.262 61.608L199.63 61.48C199.758 59.048 201.374 57.56 203.822 57.56C205.966 57.56 207.582 58.936 207.582 60.76C207.582 61.576 207.342 62.28 206.846 62.856C206.35 63.432 205.518 64.008 204.334 64.6C203.422 65.064 202.798 65.4 202.478 65.608C202.174 65.816 201.95 66.04 201.822 66.28C201.678 66.552 201.614 66.84 201.598 67.464ZM211.151 69V59.64L208.607 61.256V59.528L211.311 57.8H212.799V69H211.151ZM214.041 71.928V70.472H214.793C215.305 70.472 215.513 70.28 215.513 69.848V60.52H217.081V69.912C217.081 71.336 216.409 71.928 214.889 71.928H214.041ZM215.433 59.048V57.4H217.145V59.048H215.433ZM218.704 64.76C218.704 62.136 220.304 60.28 222.512 60.28C223.472 60.28 224.336 60.664 224.896 61.288H224.928V57.32H226.496V69H225.024V68.184H224.992C224.464 68.84 223.536 69.24 222.496 69.24C220.304 69.24 218.704 67.384 218.704 64.76ZM224.928 65.496V64.008C224.928 62.76 223.92 61.736 222.64 61.736C221.184 61.736 220.272 62.904 220.272 64.76C220.272 66.616 221.216 67.784 222.688 67.784C223.936 67.784 224.928 66.76 224.928 65.496ZM227.182 71.928V70.472H227.934C228.446 70.472 228.654 70.28 228.654 69.848V60.52H230.222V69.912C230.222 71.336 229.55 71.928 228.03 71.928H227.182ZM228.574 59.048V57.4H230.286V59.048H228.574ZM232.661 61.688V60.84C233.237 60.712 233.461 60.424 233.461 59.8H232.581V57.8H234.741V59.544C234.741 60.84 234.021 61.576 232.661 61.688ZM235.589 61.688V60.84C236.165 60.712 236.389 60.424 236.389 59.8H235.509V57.8H237.669V59.544C237.669 60.84 236.949 61.576 235.589 61.688ZM30.9816 89.152L32.4536 88.832C32.7256 90.256 33.3976 90.848 34.8056 90.848C35.8456 90.848 36.4856 90.448 36.4856 89.808C36.4856 89.056 35.9256 88.736 34.3096 88.24C32.2616 87.664 31.3976 87.04 31.3976 85.744C31.3976 84.336 32.6936 83.28 34.4376 83.28C36.1496 83.28 37.4776 84.256 37.8136 85.792L36.3416 86.176C36.0536 85.168 35.4136 84.672 34.4376 84.672C33.5256 84.672 32.9176 85.088 32.9176 85.712C32.9176 86.24 33.3976 86.512 34.8216 86.912C37.0456 87.568 38.0216 88.272 38.0216 89.744C38.0216 91.264 36.7416 92.24 34.8056 92.24C32.6136 92.24 31.2216 91.136 30.9816 89.152ZM39.4928 92V83.52H40.9648V84.224H40.9968C41.3328 83.696 41.9888 83.376 42.7728 83.376C43.0768 83.376 43.3968 83.424 43.7168 83.504L43.4128 85.072C43.0768 84.976 42.7888 84.928 42.5328 84.928C41.5568 84.928 41.0608 85.6 41.0608 87.072V92H39.4928ZM44.126 87.76C44.126 85.104 45.758 83.28 48.11 83.28C49.086 83.28 49.918 83.568 50.59 84.128C51.278 84.688 51.694 85.44 51.838 86.384L50.334 86.688C50.126 85.456 49.31 84.736 48.11 84.736C46.638 84.736 45.694 85.904 45.694 87.76C45.694 89.616 46.638 90.784 48.11 90.784C49.31 90.784 50.094 90.096 50.334 88.832L51.838 89.136C51.694 90.08 51.278 90.848 50.59 91.408C49.918 91.968 49.086 92.24 48.11 92.24C45.758 92.24 44.126 90.416 44.126 87.76ZM53.3195 85.536V84.16H60.4075V85.536H53.3195ZM53.3195 88.592V87.216H60.4075V88.592H53.3195ZM62.7857 84.688V83.84C63.3617 83.712 63.5857 83.424 63.5857 82.8H62.7057V80.8H64.8657V82.544C64.8657 83.84 64.1457 84.576 62.7857 84.688ZM65.7137 84.688V83.84C66.2897 83.712 66.5137 83.424 66.5137 82.8H65.6337V80.8H67.7937V82.544C67.7937 83.84 67.0737 84.576 65.7137 84.688ZM70.1803 92V80.32H71.7483V84.272H71.7803C72.2763 83.68 73.1723 83.28 74.0683 83.28C76.0043 83.28 77.2683 84.544 77.2683 86.48V92H75.7003V86.768C75.7003 85.504 74.9803 84.736 73.7643 84.736C72.5483 84.736 71.7483 85.552 71.7483 86.768V92H70.1803ZM82.9132 84.928H81.1532V89.76C81.1532 90.32 81.3772 90.512 82.0652 90.512H82.8332V92H81.9212C80.2092 92 79.5852 91.408 79.5852 89.792V84.928H78.2572V83.52H79.5852V81.536H81.1532V83.52H82.9132V84.928ZM88.577 84.928H86.497V89.76C86.497 90.32 86.721 90.512 87.409 90.512H88.177V92H87.265C85.553 92 84.929 91.408 84.929 89.792V84.928H83.601V83.52H84.929V81.536H86.497V83.52H88.577V84.928ZM89.9772 95.6V83.52H91.5132V84.304H91.5452C92.1052 83.68 92.9852 83.28 93.9612 83.28C96.1692 83.28 97.7692 85.136 97.7692 87.76C97.7692 90.384 96.1692 92.24 93.9772 92.24C93.0012 92.24 92.0892 91.824 91.5772 91.232H91.5452V95.6H89.9772ZM96.2012 87.76C96.2012 85.904 95.2892 84.736 93.8332 84.736C92.5532 84.736 91.5452 85.76 91.5452 87.008V88.496C91.5452 89.76 92.5372 90.784 93.7852 90.784C95.2572 90.784 96.2012 89.616 96.2012 87.76ZM98.7628 89.152L100.235 88.832C100.507 90.256 101.179 90.848 102.587 90.848C103.627 90.848 104.267 90.448 104.267 89.808C104.267 89.056 103.707 88.736 102.091 88.24C100.043 87.664 99.1788 87.04 99.1788 85.744C99.1788 84.336 100.475 83.28 102.219 83.28C103.931 83.28 105.259 84.256 105.595 85.792L104.123 86.176C103.835 85.168 103.195 84.672 102.219 84.672C101.307 84.672 100.699 85.088 100.699 85.712C100.699 86.24 101.179 86.512 102.603 86.912C104.827 87.568 105.803 88.272 105.803 89.744C105.803 91.264 104.523 92.24 102.587 92.24C100.395 92.24 99.0028 91.136 98.7628 89.152ZM107.69 86.656V84.608H109.802V86.656H107.69ZM107.69 92V89.952H109.802V92H107.69ZM112.437 92.688L111.381 92.24L117.141 80.08L118.197 80.56L112.437 92.688ZM117.28 92.688L116.224 92.24L121.984 80.08L123.04 80.56L117.28 92.688ZM123.017 89.792C123.017 88.368 123.849 87.616 126.009 87.104C127.545 86.72 128.025 86.416 128.025 85.792C128.025 85.104 127.433 84.656 126.473 84.656C125.433 84.656 124.713 85.264 124.505 86.336L122.985 86.016C123.129 85.184 123.513 84.528 124.137 84.032C124.777 83.536 125.561 83.28 126.473 83.28C128.441 83.28 129.657 84.384 129.657 86.176V92H128.217V91.184H128.185C127.721 91.84 126.841 92.24 125.801 92.24C124.121 92.24 123.017 91.28 123.017 89.792ZM128.105 89.136V87.456H128.073C127.929 87.824 127.433 88.08 126.409 88.352C125.065 88.688 124.553 89.056 124.553 89.696C124.553 90.416 125.049 90.832 125.993 90.832C127.225 90.832 128.105 90.112 128.105 89.136ZM131.524 95.6V83.52H133.06V84.304H133.092C133.652 83.68 134.532 83.28 135.508 83.28C137.716 83.28 139.316 85.136 139.316 87.76C139.316 90.384 137.716 92.24 135.524 92.24C134.548 92.24 133.636 91.824 133.124 91.232H133.092V95.6H131.524ZM137.748 87.76C137.748 85.904 136.836 84.736 135.38 84.736C134.1 84.736 133.092 85.76 133.092 87.008V88.496C133.092 89.76 134.084 90.784 135.332 90.784C136.804 90.784 137.748 89.616 137.748 87.76ZM140.946 95.6V83.52H142.482V84.304H142.514C143.074 83.68 143.954 83.28 144.93 83.28C147.138 83.28 148.738 85.136 148.738 87.76C148.738 90.384 147.138 92.24 144.946 92.24C143.97 92.24 143.058 91.824 142.546 91.232H142.514V95.6H140.946ZM147.17 87.76C147.17 85.904 146.258 84.736 144.802 84.736C143.522 84.736 142.514 85.76 142.514 87.008V88.496C142.514 89.76 143.506 90.784 144.754 90.784C146.226 90.784 147.17 89.616 147.17 87.76ZM150.471 92V89.952H152.583V92H150.471ZM154.313 87.76C154.313 85.104 155.945 83.28 158.297 83.28C159.273 83.28 160.105 83.568 160.777 84.128C161.465 84.688 161.881 85.44 162.025 86.384L160.521 86.688C160.313 85.456 159.497 84.736 158.297 84.736C156.825 84.736 155.881 85.904 155.881 87.76C155.881 89.616 156.825 90.784 158.297 90.784C159.497 90.784 160.281 90.096 160.521 88.832L162.025 89.136C161.881 90.08 161.465 90.848 160.777 91.408C160.105 91.968 159.273 92.24 158.297 92.24C155.945 92.24 154.313 90.416 154.313 87.76ZM163.251 87.76C163.251 85.088 164.883 83.28 167.299 83.28C169.715 83.28 171.347 85.088 171.347 87.76C171.347 90.432 169.715 92.24 167.299 92.24C164.883 92.24 163.251 90.432 163.251 87.76ZM169.779 87.76C169.779 85.904 168.835 84.736 167.299 84.736C165.763 84.736 164.819 85.904 164.819 87.76C164.819 89.616 165.763 90.784 167.299 90.784C168.835 90.784 169.779 89.616 169.779 87.76ZM172.977 92V83.52H174.545V92H172.977ZM172.897 82.048V80.4H174.609V82.048H172.897ZM176.477 92V83.52H177.981V84.272H178.013C178.525 83.68 179.469 83.28 180.365 83.28C182.301 83.28 183.565 84.544 183.565 86.528V92H181.997V86.768C181.997 85.504 181.277 84.736 180.061 84.736C178.845 84.736 178.045 85.552 178.045 86.768V92H176.477ZM184.95 89.152L186.422 88.832C186.694 90.256 187.366 90.848 188.774 90.848C189.814 90.848 190.454 90.448 190.454 89.808C190.454 89.056 189.894 88.736 188.278 88.24C186.23 87.664 185.366 87.04 185.366 85.744C185.366 84.336 186.662 83.28 188.406 83.28C190.118 83.28 191.446 84.256 191.782 85.792L190.31 86.176C190.022 85.168 189.382 84.672 188.406 84.672C187.494 84.672 186.886 85.088 186.886 85.712C186.886 86.24 187.366 86.512 188.79 86.912C191.014 87.568 191.99 88.272 191.99 89.744C191.99 91.264 190.71 92.24 188.774 92.24C186.582 92.24 185.19 91.136 184.95 89.152ZM193.302 89.04V83.52H194.87V88.752C194.87 90.112 195.494 90.784 196.774 90.784C197.942 90.784 198.71 89.984 198.71 88.752V83.52H200.278V92H198.774V91.248H198.726C198.214 91.872 197.286 92.24 196.31 92.24C194.406 92.24 193.302 91.072 193.302 89.04ZM203.731 91.184H203.699V92H202.227V80.32H203.795V84.288H203.827C204.387 83.664 205.251 83.28 206.211 83.28C208.419 83.28 210.019 85.136 210.019 87.76C210.019 90.384 208.419 92.24 206.227 92.24C205.187 92.24 204.259 91.84 203.731 91.184ZM208.451 87.76C208.451 85.904 207.539 84.736 206.083 84.736C204.803 84.736 203.795 85.76 203.795 87.008V88.496C203.795 89.76 204.787 90.784 206.035 90.784C207.507 90.784 208.451 89.616 208.451 87.76ZM211.753 92V89.952H213.865V92H211.753ZM216.227 92V83.52H217.795V92H216.227ZM216.147 82.048V80.4H217.859V82.048H216.147ZM219.407 87.76C219.407 85.088 221.039 83.28 223.455 83.28C225.871 83.28 227.503 85.088 227.503 87.76C227.503 90.432 225.871 92.24 223.455 92.24C221.039 92.24 219.407 90.432 219.407 87.76ZM225.935 87.76C225.935 85.904 224.991 84.736 223.455 84.736C221.919 84.736 220.975 85.904 220.975 87.76C220.975 89.616 221.919 90.784 223.455 90.784C224.991 90.784 225.935 89.616 225.935 87.76ZM229.405 92.688L228.349 92.24L234.109 80.08L235.165 80.56L229.405 92.688ZM235.557 94.928V93.472H236.309C236.821 93.472 237.029 93.28 237.029 92.848V83.52H238.597V92.912C238.597 94.336 237.925 94.928 236.405 94.928H235.557ZM236.949 82.048V80.4H238.661V82.048H236.949ZM240.06 89.152L241.532 88.832C241.804 90.256 242.476 90.848 243.884 90.848C244.924 90.848 245.564 90.448 245.564 89.808C245.564 89.056 245.004 88.736 243.388 88.24C241.34 87.664 240.476 87.04 240.476 85.744C240.476 84.336 241.772 83.28 243.516 83.28C245.228 83.28 246.556 84.256 246.892 85.792L245.42 86.176C245.132 85.168 244.492 84.672 243.516 84.672C242.604 84.672 241.996 85.088 241.996 85.712C241.996 86.24 242.476 86.512 243.9 86.912C246.124 87.568 247.1 88.272 247.1 89.744C247.1 91.264 245.82 92.24 243.884 92.24C241.692 92.24 240.3 91.136 240.06 89.152ZM248.843 92.688L247.787 92.24L253.547 80.08L254.603 80.56L248.843 92.688ZM31.4616 115V103.32H33.0296V115H31.4616ZM34.9616 115V106.52H36.5296V115H34.9616ZM34.8816 105.048V103.4H36.5936V105.048H34.8816ZM39.9656 114.184H39.9336V115H38.4616V103.32H40.0296V107.288H40.0616C40.6216 106.664 41.4856 106.28 42.4456 106.28C44.6536 106.28 46.2536 108.136 46.2536 110.76C46.2536 113.384 44.6536 115.24 42.4616 115.24C41.4216 115.24 40.4936 114.84 39.9656 114.184ZM44.6856 110.76C44.6856 108.904 43.7736 107.736 42.3176 107.736C41.0376 107.736 40.0296 108.76 40.0296 110.008V111.496C40.0296 112.76 41.0216 113.784 42.2696 113.784C43.7416 113.784 44.6856 112.616 44.6856 110.76ZM47.8835 115V106.52H49.3555V107.224H49.3875C49.7235 106.696 50.3795 106.376 51.1635 106.376C51.4675 106.376 51.7875 106.424 52.1075 106.504L51.8035 108.072C51.4675 107.976 51.1795 107.928 50.9235 107.928C49.9475 107.928 49.4515 108.6 49.4515 110.072V115H47.8835ZM52.4861 112.792C52.4861 111.368 53.3181 110.616 55.4781 110.104C57.0141 109.72 57.4941 109.416 57.4941 108.792C57.4941 108.104 56.9021 107.656 55.9421 107.656C54.9021 107.656 54.1821 108.264 53.9741 109.336L52.4541 109.016C52.5981 108.184 52.9821 107.528 53.6061 107.032C54.2461 106.536 55.0301 106.28 55.9421 106.28C57.9101 106.28 59.1261 107.384 59.1261 109.176V115H57.6861V114.184H57.6541C57.1901 114.84 56.3101 115.24 55.2701 115.24C53.5901 115.24 52.4861 114.28 52.4861 112.792ZM57.5741 112.136V110.456H57.5421C57.3981 110.824 56.9021 111.08 55.8781 111.352C54.5341 111.688 54.0221 112.056 54.0221 112.696C54.0221 113.416 54.5181 113.832 55.4621 113.832C56.6941 113.832 57.5741 113.112 57.5741 112.136ZM60.9928 115V106.52H62.4648V107.224H62.4968C62.8328 106.696 63.4888 106.376 64.2728 106.376C64.5768 106.376 64.8968 106.424 65.2168 106.504L64.9128 108.072C64.5768 107.976 64.2888 107.928 64.0328 107.928C63.0568 107.928 62.5608 108.6 62.5608 110.072V115H60.9928ZM70.7332 107.928H68.6532V112.76C68.6532 113.32 68.8772 113.512 69.5652 113.512H70.3332V115H69.4212C67.7092 115 67.0852 114.408 67.0852 112.792V107.928H65.7572V106.52H67.0852V104.536H68.6532V106.52H70.7332V107.928ZM72.8898 115.688L71.8338 115.24L77.5938 103.08L78.6498 103.56L72.8898 115.688ZM81.6375 114.184H81.6055V115H80.1335V103.32H81.7015V107.288H81.7335C82.2935 106.664 83.1575 106.28 84.1175 106.28C86.3255 106.28 87.9255 108.136 87.9255 110.76C87.9255 113.384 86.3255 115.24 84.1335 115.24C83.0935 115.24 82.1655 114.84 81.6375 114.184ZM86.3575 110.76C86.3575 108.904 85.4455 107.736 83.9895 107.736C82.7095 107.736 81.7015 108.76 81.7015 110.008V111.496C81.7015 112.76 82.6935 113.784 83.9415 113.784C85.4135 113.784 86.3575 112.616 86.3575 110.76ZM89.3953 112.04V106.52H90.9633V111.752C90.9633 113.112 91.5873 113.784 92.8673 113.784C94.0353 113.784 94.8033 112.984 94.8033 111.752V106.52H96.3713V115H94.8673V114.248H94.8193C94.3073 114.872 93.3793 115.24 92.4033 115.24C90.4993 115.24 89.3953 114.072 89.3953 112.04ZM102.257 107.928H100.497V112.76C100.497 113.32 100.721 113.512 101.409 113.512H102.177V115H101.265C99.553 115 98.929 114.408 98.929 112.792V107.928H97.601V106.52H98.929V104.536H100.497V106.52H102.257V107.928ZM107.921 107.928H105.841V112.76C105.841 113.32 106.065 113.512 106.753 113.512H107.521V115H106.609C104.897 115 104.273 114.408 104.273 112.792V107.928H102.945V106.52H104.273V104.536H105.841V106.52H107.921V107.928ZM108.563 110.76C108.563 108.088 110.195 106.28 112.611 106.28C115.027 106.28 116.659 108.088 116.659 110.76C116.659 113.432 115.027 115.24 112.611 115.24C110.195 115.24 108.563 113.432 108.563 110.76ZM115.091 110.76C115.091 108.904 114.147 107.736 112.611 107.736C111.075 107.736 110.131 108.904 110.131 110.76C110.131 112.616 111.075 113.784 112.611 113.784C114.147 113.784 115.091 112.616 115.091 110.76ZM118.29 115V106.52H119.794V107.272H119.826C120.338 106.68 121.282 106.28 122.178 106.28C124.114 106.28 125.378 107.544 125.378 109.528V115H123.81V109.768C123.81 108.504 123.09 107.736 121.874 107.736C120.658 107.736 119.858 108.552 119.858 109.768V115H118.29ZM127.659 115V112.952H129.771V115H127.659ZM130.869 117.928V116.472H131.621C132.133 116.472 132.341 116.28 132.341 115.848V106.52H133.909V115.912C133.909 117.336 133.237 117.928 131.717 117.928H130.869ZM132.261 105.048V103.4H133.973V105.048H132.261ZM135.372 112.152L136.844 111.832C137.116 113.256 137.788 113.848 139.196 113.848C140.236 113.848 140.876 113.448 140.876 112.808C140.876 112.056 140.316 111.736 138.7 111.24C136.652 110.664 135.788 110.04 135.788 108.744C135.788 107.336 137.084 106.28 138.828 106.28C140.54 106.28 141.868 107.256 142.204 108.792L140.732 109.176C140.444 108.168 139.804 107.672 138.828 107.672C137.916 107.672 137.308 108.088 137.308 108.712C137.308 109.24 137.788 109.512 139.212 109.912C141.436 110.568 142.412 111.272 142.412 112.744C142.412 114.264 141.132 115.24 139.196 115.24C137.004 115.24 135.612 114.136 135.372 112.152ZM143.567 107.688V106.84C144.143 106.712 144.367 106.424 144.367 105.8H143.487V103.8H145.647V105.544C145.647 106.84 144.927 107.576 143.567 107.688ZM146.495 107.688V106.84C147.071 106.712 147.295 106.424 147.295 105.8H146.415V103.8H148.575V105.544C148.575 106.84 147.855 107.576 146.495 107.688ZM151.682 113.72L150.898 112.488L156.146 109.384L150.898 106.28L151.682 105.048L157.906 108.792V109.976L151.682 113.72Z" fill="black"/>
<path d="M295.486 64.25H279.486C279.287 64.25 279.096 64.329 278.955 64.4697C278.815 64.6103 278.736 64.8011 278.736 65V70.25H273.486C273.287 70.25 273.096 70.329 272.955 70.4697C272.815 70.6103 272.736 70.8011 272.736 71V87C272.736 87.1989 272.815 87.3897 272.955 87.5303C273.096 87.671 273.287 87.75 273.486 87.75H289.486C289.685 87.75 289.875 87.671 290.016 87.5303C290.157 87.3897 290.236 87.1989 290.236 87V81.75H295.486C295.685 81.75 295.875 81.671 296.016 81.5303C296.157 81.3897 296.236 81.1989 296.236 81V65C296.236 64.8011 296.157 64.6103 296.016 64.4697C295.875 64.329 295.685 64.25 295.486 64.25ZM288.736 86.25H274.236V71.75H288.736V86.25ZM294.736 80.25H290.236V71C290.236 70.8011 290.157 70.6103 290.016 70.4697C289.875 70.329 289.685 70.25 289.486 70.25H280.236V65.75H294.736V80.25Z" fill="black"/>
<path d="M138.641 193.675V197.95H135.941V193.585C129.101 192.91 124.916 189.265 124.061 182.605L129.551 181.525C130.316 185.89 132.296 188.005 135.941 188.545V178.825C133.691 178.15 131.846 177.52 130.361 176.845C127.436 175.54 125.141 173.2 125.141 169.555C125.141 164.56 129.731 161.005 135.941 160.825V156.955H138.641V160.96C144.446 161.635 148.316 165.055 149.216 170.05L143.726 171.175C142.871 168.295 141.341 166.63 138.641 166.045V174.235C140.936 174.91 142.916 175.63 144.491 176.395C147.731 177.88 150.206 180.58 150.206 184.72C150.206 189.895 145.571 193.495 138.641 193.675ZM135.941 173.425V165.82C132.746 165.955 130.631 167.305 130.631 169.465C130.631 171.265 132.476 172.345 135.941 173.425ZM144.671 184.765C144.671 182.245 142.556 180.94 138.641 179.68V188.68C142.556 188.545 144.671 187.105 144.671 184.765ZM153.507 182.92L158.772 181.975C159.447 186.61 161.562 188.68 165.882 188.68C169.302 188.68 171.417 186.925 171.417 184.045C171.417 180.94 169.482 179.41 165.567 179.41H162.732V175.045H165.207C168.447 175.045 170.607 173.47 170.607 171.13C170.607 168.655 168.672 167.035 165.567 167.035C162.147 167.035 159.897 168.79 159.402 171.805L154.137 170.905C154.542 168.25 155.802 166.09 157.827 164.515C159.897 162.895 162.462 162.085 165.567 162.085C171.687 162.085 176.007 165.64 176.007 170.5C176.007 173.2 174.522 175.405 172.047 176.62V176.71C174.972 177.97 176.862 180.85 176.862 184.405C176.862 189.76 172.407 193.675 165.882 193.675C158.817 193.675 154.272 189.715 153.507 182.92ZM180.618 177.88C180.618 168.16 185.838 162.085 193.533 162.085C201.228 162.085 206.448 168.16 206.448 177.88C206.448 187.6 201.093 193.675 193.533 193.675C185.973 193.675 180.618 187.6 180.618 177.88ZM201.048 177.88C201.048 170.86 198.258 167.08 193.533 167.08C188.808 167.08 186.018 170.86 186.018 177.88C186.018 184.9 188.808 188.68 193.533 188.68C198.258 188.68 201.048 184.9 201.048 177.88Z" fill="white"/>
<rect x="15.4856" y="222" width="300" height="45" rx="22.5" fill="#0A3356"/>
<path d="M102.336 249.5V236.9H107.394C110.058 236.9 111.714 238.448 111.714 240.95C111.714 243.488 110.094 244.982 107.376 244.982H104.586V249.5H102.336ZM104.586 242.912H107.34C108.69 242.912 109.464 242.192 109.464 240.95C109.464 239.636 108.762 238.97 107.34 238.97H104.586V242.912ZM112.744 246.962C112.744 245.36 113.698 244.496 116.146 243.92C117.748 243.506 118.252 243.218 118.252 242.624C118.252 241.958 117.676 241.544 116.722 241.544C115.642 241.544 114.904 242.174 114.706 243.236L112.672 242.804C112.834 241.868 113.266 241.112 114.004 240.554C114.742 239.978 115.66 239.69 116.722 239.69C119.026 239.69 120.466 241.004 120.466 243.146V249.5H118.504V248.672H118.468C117.982 249.374 117.046 249.77 115.876 249.77C113.986 249.77 112.744 248.672 112.744 246.962ZM118.342 246.278V244.64H118.306C118.108 244.982 117.658 245.234 116.65 245.522C115.336 245.864 114.832 246.224 114.832 246.818C114.832 247.538 115.3 247.898 116.236 247.898C117.478 247.898 118.342 247.232 118.342 246.278ZM122.878 253.55L124.786 248.906L121.114 239.96H123.364L125.866 246.386H125.902L128.422 239.96H130.654L125.092 253.55H122.878ZM137.554 249.5L135.358 239.96H137.5L138.886 246.512H138.922L141.118 239.96H143.026L145.222 246.512H145.258L146.644 239.96H148.786L146.59 249.5H144.466L142.09 242.516H142.054L139.678 249.5H137.554ZM150.105 249.5V239.96H152.265V249.5H150.105ZM150.051 238.34V236.162H152.319V238.34H150.051ZM159.527 241.886H157.169V246.62C157.169 247.25 157.403 247.43 158.177 247.43H159.131V249.5H157.979C155.837 249.5 155.009 248.744 155.009 246.728V241.886H153.443V239.96H155.009V237.638H157.169V239.96H159.527V241.886ZM160.933 249.5V236.36H163.093V240.806H163.129C163.687 240.104 164.641 239.69 165.667 239.69C167.809 239.69 169.231 241.148 169.231 243.254V249.5H167.071V243.722C167.071 242.444 166.351 241.706 165.109 241.706C163.867 241.706 163.093 242.498 163.093 243.722V249.5H160.933ZM175.092 243.2C175.092 239.258 177.27 236.63 180.564 236.63C183.21 236.63 185.172 238.43 185.496 241.094L183.282 241.454C182.976 239.672 182.022 238.7 180.564 238.7C178.548 238.7 177.342 240.392 177.342 243.2C177.342 246.008 178.548 247.7 180.564 247.7C182.094 247.7 183.066 246.674 183.3 244.712L185.532 245.072C185.244 247.934 183.3 249.77 180.564 249.77C177.252 249.77 175.092 247.178 175.092 243.2ZM186.966 249.5V239.96H189V240.788H189.036C189.45 240.158 190.17 239.78 191.052 239.78C191.484 239.78 191.862 239.834 192.204 239.942L191.826 242.048C191.43 241.94 191.088 241.886 190.8 241.886C189.684 241.886 189.126 242.642 189.126 244.154V249.5H186.966ZM194.333 253.55L196.241 248.906L192.569 239.96H194.819L197.321 246.386H197.357L199.877 239.96H202.109L196.547 253.55H194.333ZM203.155 253.55V239.96H205.261V240.716H205.297C205.927 240.068 206.845 239.69 207.907 239.69C210.391 239.69 212.191 241.814 212.191 244.73C212.191 247.646 210.391 249.77 207.925 249.77C206.863 249.77 205.909 249.374 205.351 248.744H205.315V253.55H203.155ZM210.031 244.73C210.031 242.84 209.113 241.67 207.601 241.67C206.287 241.67 205.315 242.66 205.315 243.956V245.486C205.315 246.152 205.531 246.692 205.963 247.142C206.395 247.574 206.935 247.79 207.565 247.79C209.095 247.79 210.031 246.62 210.031 244.73ZM218.906 241.886H216.548V246.62C216.548 247.25 216.782 247.43 217.556 247.43H218.51V249.5H217.358C215.216 249.5 214.388 248.744 214.388 246.728V241.886H212.822V239.96H214.388V237.638H216.548V239.96H218.906V241.886ZM219.53 244.73C219.53 241.724 221.42 239.69 224.156 239.69C226.91 239.69 228.8 241.724 228.8 244.73C228.8 247.736 226.91 249.77 224.156 249.77C221.42 249.77 219.53 247.736 219.53 244.73ZM226.64 244.73C226.64 242.84 225.722 241.67 224.156 241.67C222.626 241.67 221.69 242.804 221.69 244.73C221.69 246.656 222.626 247.79 224.156 247.79C225.722 247.79 226.64 246.62 226.64 244.73Z" fill="white"/>
<path d="M92.4135 294V284.9H96.0665C97.9905 284.9 99.1865 286.018 99.1865 287.825C99.1865 289.658 98.0165 290.737 96.0535 290.737H94.0385V294H92.4135ZM94.0385 289.242H96.0275C97.0025 289.242 97.5615 288.722 97.5615 287.825C97.5615 286.876 97.0545 286.395 96.0275 286.395H94.0385V289.242ZM99.5741 290.555C99.5741 288.384 100.939 286.915 102.915 286.915C104.904 286.915 106.269 288.384 106.269 290.555C106.269 292.726 104.904 294.195 102.915 294.195C100.939 294.195 99.5741 292.726 99.5741 290.555ZM104.709 290.555C104.709 289.19 104.046 288.345 102.915 288.345C101.81 288.345 101.134 289.164 101.134 290.555C101.134 291.946 101.81 292.765 102.915 292.765C104.046 292.765 104.709 291.92 104.709 290.555ZM108.29 294L106.704 287.11H108.251L109.252 291.842H109.278L110.864 287.11H112.242L113.828 291.842H113.854L114.855 287.11H116.402L114.816 294H113.282L111.566 288.956H111.54L109.824 294H108.29ZM116.84 290.555C116.84 288.41 118.179 286.915 120.051 286.915C121.962 286.915 123.236 288.371 123.236 290.477V291.01H118.413C118.465 292.115 119.102 292.843 120.077 292.843C120.844 292.843 121.364 292.505 121.884 291.712L123.028 292.544C122.404 293.636 121.39 294.195 120.077 294.195C118.166 294.195 116.84 292.726 116.84 290.555ZM118.426 289.866H121.689C121.637 288.891 121.039 288.267 120.064 288.267C119.167 288.267 118.478 288.943 118.426 289.866ZM124.4 294V287.11H125.869V287.708H125.895C126.194 287.253 126.714 286.98 127.351 286.98C127.663 286.98 127.936 287.019 128.183 287.097L127.91 288.618C127.624 288.54 127.377 288.501 127.169 288.501C126.363 288.501 125.96 289.047 125.96 290.139V294H124.4ZM128.38 290.555C128.38 288.41 129.719 286.915 131.591 286.915C133.502 286.915 134.776 288.371 134.776 290.477V291.01H129.953C130.005 292.115 130.642 292.843 131.617 292.843C132.384 292.843 132.904 292.505 133.424 291.712L134.568 292.544C133.944 293.636 132.93 294.195 131.617 294.195C129.706 294.195 128.38 292.726 128.38 290.555ZM129.966 289.866H133.229C133.177 288.891 132.579 288.267 131.604 288.267C130.707 288.267 130.018 288.943 129.966 289.866ZM135.68 290.555C135.68 288.449 136.98 286.915 138.774 286.915C139.515 286.915 140.165 287.162 140.62 287.617H140.646V284.51H142.206V294H140.75V293.363H140.724C140.308 293.87 139.593 294.195 138.761 294.195C136.98 294.195 135.68 292.661 135.68 290.555ZM140.646 291.101V289.996C140.646 289.06 139.944 288.345 138.995 288.345C137.903 288.345 137.24 289.19 137.24 290.555C137.24 291.92 137.916 292.765 139.021 292.765C139.476 292.765 139.866 292.609 140.178 292.297C140.49 291.972 140.646 291.582 140.646 291.101ZM148.492 293.363H148.466V294H147.01V284.51H148.57V287.617H148.596C149.051 287.162 149.701 286.915 150.442 286.915C152.236 286.915 153.536 288.449 153.536 290.555C153.536 292.661 152.236 294.195 150.455 294.195C149.623 294.195 148.908 293.87 148.492 293.363ZM151.976 290.555C151.976 289.19 151.313 288.345 150.221 288.345C149.272 288.345 148.57 289.06 148.57 289.996V291.101C148.57 291.582 148.726 291.972 149.038 292.297C149.35 292.609 149.74 292.765 150.195 292.765C151.3 292.765 151.976 291.92 151.976 290.555ZM154.908 296.925L156.286 293.571L153.634 287.11H155.259L157.066 291.751H157.092L158.912 287.11H160.524L156.507 296.925H154.908Z" fill="white"/>
<path d="M203.278 286.861V294.366H205.132V286.861H203.278Z" fill="white"/>
<path d="M203.19 283.579V285.625H205.206V283.579H203.19Z" fill="white"/>
<path d="M206.856 286.861V294.366H208.71V290.319C208.71 289.907 208.793 289.544 208.96 289.23C209.137 288.916 209.377 288.671 209.681 288.494C209.995 288.318 210.348 288.229 210.741 288.229C211.192 288.229 211.536 288.347 211.771 288.583C212.007 288.818 212.124 289.166 212.124 289.628V294.366H213.993V289.245C213.993 288.48 213.763 287.866 213.302 287.405C212.85 286.944 212.218 286.714 211.403 286.714C210.716 286.714 210.128 286.88 209.637 287.214C209.234 287.48 208.91 287.823 208.666 288.241V286.861H206.856Z" fill="white"/>
<path fill-rule="evenodd" clip-rule="evenodd" d="M198.171 294.514C197.376 294.514 196.674 294.347 196.066 294.013C195.468 293.68 195.002 293.218 194.668 292.63C194.334 292.031 194.168 291.349 194.168 290.584C194.168 289.819 194.334 289.147 194.668 288.568C195.002 287.989 195.468 287.538 196.066 287.214C196.674 286.88 197.376 286.714 198.171 286.714C198.975 286.714 199.677 286.88 200.275 287.214C200.874 287.538 201.34 287.989 201.673 288.568C202.007 289.147 202.174 289.819 202.174 290.584C202.174 291.349 202.002 292.031 201.659 292.63C201.325 293.218 200.859 293.68 200.26 294.013C199.662 294.347 198.965 294.514 198.171 294.514ZM198.171 293.027C198.563 293.027 198.916 292.929 199.23 292.733C199.544 292.527 199.79 292.242 199.966 291.879C200.143 291.506 200.231 291.07 200.231 290.569C200.231 289.834 200.035 289.255 199.642 288.833C199.26 288.411 198.769 288.2 198.171 288.2C197.572 288.2 197.077 288.411 196.684 288.833C196.292 289.255 196.096 289.834 196.096 290.569C196.096 291.07 196.184 291.506 196.36 291.879C196.547 292.242 196.792 292.527 197.096 292.733C197.41 292.929 197.768 293.027 198.171 293.027Z" fill="white"/>
<path d="M188.175 294.013C188.754 294.347 189.421 294.514 190.177 294.514C190.795 294.514 191.349 294.401 191.84 294.175C192.34 293.94 192.752 293.616 193.076 293.204C193.41 292.782 193.621 292.296 193.709 291.747H191.928C191.82 292.149 191.614 292.463 191.31 292.689C191.006 292.914 190.638 293.027 190.206 293.027C189.814 293.027 189.471 292.929 189.176 292.733C188.882 292.527 188.656 292.242 188.499 291.879C188.342 291.516 188.264 291.089 188.264 290.599C188.264 290.118 188.342 289.696 188.499 289.333C188.656 288.97 188.877 288.691 189.161 288.494C189.456 288.298 189.804 288.2 190.206 288.2C190.638 288.2 191.006 288.313 191.31 288.538C191.614 288.764 191.82 289.078 191.928 289.48H193.709C193.621 288.931 193.415 288.45 193.091 288.038C192.767 287.616 192.355 287.292 191.855 287.067C191.354 286.831 190.795 286.714 190.177 286.714C189.421 286.714 188.754 286.88 188.175 287.214C187.606 287.548 187.155 288.009 186.821 288.597C186.498 289.176 186.336 289.843 186.336 290.599C186.336 291.354 186.498 292.031 186.821 292.63C187.155 293.218 187.606 293.68 188.175 294.013Z" fill="white"/>
<path fill-rule="evenodd" clip-rule="evenodd" d="M235.872 294.513C235.155 294.513 234.567 294.347 234.106 294.013C233.782 293.767 233.546 293.454 233.399 293.077V294.366H231.589V283.77H233.443V288.116C233.604 287.745 233.859 287.44 234.209 287.199C234.689 286.875 235.283 286.713 235.989 286.713C236.657 286.713 237.235 286.875 237.726 287.199C238.226 287.513 238.614 287.959 238.889 288.538C239.163 289.117 239.301 289.799 239.301 290.584C239.301 291.379 239.159 292.07 238.874 292.659C238.589 293.248 238.192 293.704 237.682 294.028C237.172 294.352 236.568 294.513 235.872 294.513ZM235.401 292.983C235.999 292.983 236.475 292.777 236.828 292.365C237.182 291.943 237.358 291.354 237.358 290.599C237.358 289.843 237.177 289.259 236.814 288.847C236.46 288.435 235.985 288.229 235.386 288.229C234.797 288.229 234.322 288.44 233.958 288.862C233.595 289.274 233.414 289.858 233.414 290.613C233.414 291.369 233.595 291.953 233.958 292.365C234.322 292.777 234.802 292.983 235.401 292.983Z" fill="white"/>
<path d="M225.381 294.513C224.861 294.513 224.409 294.406 224.027 294.19C223.654 293.964 223.365 293.66 223.158 293.277C222.962 292.895 222.864 292.463 222.864 291.982V286.861H224.718V291.599C224.718 292.061 224.831 292.409 225.057 292.644C225.292 292.88 225.621 292.998 226.043 292.998C226.426 292.998 226.759 292.909 227.044 292.733C227.338 292.556 227.569 292.311 227.735 291.997C227.912 291.673 228 291.31 228 290.908V286.861H229.869V294.366H228.059V292.968C227.821 293.396 227.497 293.75 227.088 294.028C226.607 294.352 226.038 294.513 225.381 294.513Z" fill="white"/>
<path d="M216.251 293.866C216.869 294.298 217.698 294.513 218.738 294.513C219.729 294.513 220.499 294.317 221.048 293.925C221.598 293.532 221.872 292.978 221.872 292.262C221.872 291.702 221.681 291.217 221.299 290.805C220.926 290.393 220.371 290.103 219.635 289.936L218.34 289.642C217.948 289.544 217.668 289.431 217.502 289.304C217.335 289.166 217.251 288.999 217.251 288.803C217.251 288.548 217.359 288.357 217.575 288.229C217.791 288.092 218.11 288.023 218.532 288.023C218.983 288.023 219.336 288.102 219.591 288.259C219.856 288.416 220.013 288.646 220.062 288.95H221.755C221.696 288.254 221.382 287.709 220.813 287.317C220.254 286.915 219.508 286.713 218.576 286.713C217.634 286.713 216.893 286.915 216.354 287.317C215.824 287.709 215.559 288.254 215.559 288.95C215.559 289.519 215.755 289.995 216.148 290.378C216.55 290.751 217.163 291.025 217.987 291.202L219.194 291.482C219.577 291.57 219.837 291.683 219.974 291.82C220.111 291.948 220.18 292.115 220.18 292.321C220.18 292.605 220.057 292.826 219.812 292.983C219.577 293.13 219.219 293.204 218.738 293.204C218.208 293.204 217.786 293.105 217.472 292.909C217.158 292.713 216.977 292.424 216.928 292.041H215.235C215.294 292.816 215.632 293.424 216.251 293.866Z" fill="white"/>
<path d="M167.329 285.785C166.765 287.053 166.229 287.985 167.078 289.283C168.682 291.733 173.28 295.782 179.341 296.255C181.141 296.395 181.844 295.323 183.062 294.128C179.167 297.749 166.038 290.216 167.329 285.785Z" fill="white"/>
<path d="M181.792 294.552C181.43 292.538 176.523 290.022 176.523 290.022C176.503 290.082 176.483 290.141 176.462 290.201C176.355 290.513 176.248 290.822 176.237 291.158C170.671 288.303 170.361 285.689 170.237 284.641C170.231 284.592 170.226 284.547 170.221 284.506C166.433 284.379 167.397 287.235 168.639 288.636C170.831 291.75 177.832 295.903 181.792 294.552Z" fill="white"/>
<path d="M171.17 284.555C171.242 286.876 174.721 288.643 174.721 288.643C174.778 288.463 174.825 288.273 174.873 288.083C174.92 287.89 174.968 287.698 175.026 287.516C179.933 290.063 182.427 292.268 182.545 294.225C185.959 292.355 178.011 285.532 171.17 284.555Z" fill="white"/>
</svg>
