<svg width="330" height="310" viewBox="0 0 330 310" fill="none" xmlns="http://www.w3.org/2000/svg">
<g clip-path="url(#clip0_6879_2252)">
<rect width="330" height="333" rx="8" fill="white" fill-opacity="0.15"/>
<rect x="15" y="15" width="300" height="57.0841" rx="3.80561" fill="white" fill-opacity="0.6"/>
<path d="M26.3831 38.4424V28.6424H30.2471C32.3191 28.6424 33.5511 29.8184 33.5511 31.7224C33.5511 33.6404 32.3191 34.7884 30.2331 34.7884H27.8251V38.4424H26.3831ZM27.8251 33.4444H30.1771C31.4651 33.4444 32.1091 32.8704 32.1091 31.7224C32.1091 30.5464 31.4791 29.9864 30.1911 29.9864H27.8251V33.4444ZM34.7164 38.4424V31.0224H36.0044V31.6384H36.0324C36.3264 31.1764 36.9004 30.8964 37.5864 30.8964C37.8524 30.8964 38.1324 30.9384 38.4124 31.0084L38.1464 32.3804C37.8524 32.2964 37.6004 32.2544 37.3764 32.2544C36.5224 32.2544 36.0884 32.8424 36.0884 34.1304V38.4424H34.7164ZM38.7704 34.7324C38.7704 32.3944 40.1984 30.8124 42.3124 30.8124C44.4264 30.8124 45.8544 32.3944 45.8544 34.7324C45.8544 37.0704 44.4264 38.6524 42.3124 38.6524C40.1984 38.6524 38.7704 37.0704 38.7704 34.7324ZM44.4824 34.7324C44.4824 33.1084 43.6564 32.0864 42.3124 32.0864C40.9684 32.0864 40.1424 33.1084 40.1424 34.7324C40.1424 36.3564 40.9684 37.3784 42.3124 37.3784C43.6564 37.3784 44.4824 36.3564 44.4824 34.7324ZM47.0009 34.7324C47.0009 32.4364 48.4009 30.8124 50.3329 30.8124C51.1729 30.8124 51.9289 31.1484 52.4189 31.6944H52.4469V28.2224H53.8189V38.4424H52.5309V37.7284H52.5029C52.0409 38.3024 51.2289 38.6524 50.3189 38.6524C48.4009 38.6524 47.0009 37.0284 47.0009 34.7324ZM52.4469 35.3764V34.0744C52.4469 32.9824 51.5649 32.0864 50.4449 32.0864C49.1709 32.0864 48.3729 33.1084 48.3729 34.7324C48.3729 36.3564 49.1989 37.3784 50.4869 37.3784C51.5789 37.3784 52.4469 36.4824 52.4469 35.3764ZM55.385 35.8524V31.0224H56.757V35.6004C56.757 36.7904 57.303 37.3784 58.423 37.3784C59.445 37.3784 60.117 36.6784 60.117 35.6004V31.0224H61.489V38.4424H60.173V37.7844H60.131C59.683 38.3304 58.871 38.6524 58.017 38.6524C56.351 38.6524 55.385 37.6304 55.385 35.8524ZM62.9149 34.7324C62.9149 32.4084 64.3429 30.8124 66.4009 30.8124C67.2549 30.8124 67.9829 31.0644 68.5709 31.5544C69.1729 32.0444 69.5369 32.7024 69.6629 33.5284L68.3469 33.7944C68.1649 32.7164 67.4509 32.0864 66.4009 32.0864C65.1129 32.0864 64.2869 33.1084 64.2869 34.7324C64.2869 36.3564 65.1129 37.3784 66.4009 37.3784C67.4509 37.3784 68.1369 36.7764 68.3469 35.6704L69.6629 35.9364C69.5369 36.7624 69.1729 37.4344 68.5709 37.9244C67.9829 38.4144 67.2549 38.6524 66.4009 38.6524C64.3429 38.6524 62.9149 37.0564 62.9149 34.7324ZM74.6025 32.2544H72.7825V36.4824C72.7825 36.9724 72.9785 37.1404 73.5805 37.1404H74.2525V38.4424H73.4545C71.9565 38.4424 71.4105 37.9244 71.4105 36.5104V32.2544H70.2485V31.0224H71.4105V29.2864H72.7825V31.0224H74.6025V32.2544ZM79.8265 38.4424V28.6424H81.4225L85.5105 36.0904H85.5385V28.6424H86.9805V38.4424H85.3845L81.2965 30.9944H81.2685V38.4424H79.8265ZM88.7144 36.5104C88.7144 35.2644 89.4424 34.6064 91.3324 34.1584C92.6764 33.8224 93.0964 33.5564 93.0964 33.0104C93.0964 32.4084 92.5784 32.0164 91.7384 32.0164C90.8284 32.0164 90.1984 32.5484 90.0164 33.4864L88.6864 33.2064C88.8124 32.4784 89.1484 31.9044 89.6944 31.4704C90.2544 31.0364 90.9404 30.8124 91.7384 30.8124C93.4604 30.8124 94.5244 31.7784 94.5244 33.3464V38.4424H93.2644V37.7284H93.2364C92.8304 38.3024 92.0604 38.6524 91.1504 38.6524C89.6804 38.6524 88.7144 37.8124 88.7144 36.5104ZM93.1664 35.9364V34.4664H93.1384C93.0124 34.7884 92.5784 35.0124 91.6824 35.2504C90.5064 35.5444 90.0584 35.8664 90.0584 36.4264C90.0584 37.0564 90.4924 37.4204 91.3184 37.4204C92.3964 37.4204 93.1664 36.7904 93.1664 35.9364ZM96.1578 38.4424V31.0224H97.4738V31.6104H97.5018C97.8938 31.1204 98.6218 30.8124 99.3498 30.8124C100.134 30.8124 100.876 31.1764 101.268 31.7364H101.296C101.814 31.1624 102.528 30.8124 103.326 30.8124C104.838 30.8124 105.972 31.8624 105.972 33.3464V38.4424H104.628V33.5704C104.628 32.6744 104.054 32.0864 103.172 32.0864C102.29 32.0864 101.716 32.7164 101.716 33.6544V38.4424H100.414V33.5704C100.414 32.6744 99.8258 32.0864 98.9718 32.0864C98.0758 32.0864 97.5018 32.7164 97.5018 33.6544V38.4424H96.1578ZM107.335 34.7324C107.335 32.4224 108.749 30.8124 110.779 30.8124C112.795 30.8124 114.139 32.3384 114.139 34.5644V35.1384H108.721C108.735 35.7964 108.931 36.3564 109.309 36.7904C109.687 37.2244 110.177 37.4344 110.779 37.4344C111.717 37.4344 112.277 37.0704 112.893 36.0764L113.957 36.7904C113.299 38.0224 112.207 38.6524 110.793 38.6524C108.735 38.6524 107.335 37.0704 107.335 34.7324ZM108.749 34.0884H112.781C112.725 32.8704 111.955 32.0304 110.779 32.0304C109.659 32.0304 108.777 32.9684 108.749 34.0884Z" fill="#032A67"/>
<path d="M25.7761 54.7146L27.4931 54.3746C27.7481 56.3976 28.7511 57.2816 30.7401 57.2816C32.2361 57.2816 33.1881 56.6186 33.1881 55.5986C33.1881 54.4936 32.4741 53.9156 30.1451 53.1676C27.2891 52.2326 26.3371 51.3486 26.3371 49.6996C26.3371 47.8126 27.9351 46.4866 30.2131 46.4866C31.3521 46.4866 32.3211 46.8096 33.1201 47.4386C33.9191 48.0676 34.3951 48.9006 34.5821 49.9546L32.8821 50.3286C32.5081 48.8496 31.6241 48.1016 30.2131 48.1016C28.9041 48.1016 28.0711 48.7306 28.0711 49.6996C28.0711 50.4986 28.7001 50.9746 30.7231 51.6036C33.8001 52.6236 34.9221 53.6606 34.9221 55.5646C34.9221 57.5536 33.2051 58.8966 30.7061 58.8966C27.8331 58.8966 26.0991 57.4176 25.7761 54.7146ZM40.9849 51.1276H38.7749V56.2616C38.7749 56.8566 39.0129 57.0606 39.7439 57.0606H40.5599V58.6416H39.5909C37.7719 58.6416 37.1089 58.0126 37.1089 56.2956V51.1276H35.6979V49.6316H37.1089V47.5236H38.7749V49.6316H40.9849V51.1276ZM42.4727 58.6416V49.6316H44.0367V50.3796H44.0707C44.4277 49.8186 45.1247 49.4786 45.9577 49.4786C46.2807 49.4786 46.6207 49.5296 46.9607 49.6146L46.6377 51.2806C46.2807 51.1786 45.9747 51.1276 45.7027 51.1276C44.6657 51.1276 44.1387 51.8416 44.1387 53.4056V58.6416H42.4727ZM47.3954 54.1366C47.3954 51.3316 49.1124 49.3766 51.5774 49.3766C54.0254 49.3766 55.6574 51.2296 55.6574 53.9326V54.6296H49.0784C49.0954 55.4286 49.3334 56.1086 49.7924 56.6356C50.2514 57.1626 50.8464 57.4176 51.5774 57.4176C52.7164 57.4176 53.3964 56.9756 54.1444 55.7686L55.4364 56.6356C54.6374 58.1316 53.3114 58.8966 51.5944 58.8966C49.0954 58.8966 47.3954 56.9756 47.3954 54.1366ZM49.1124 53.3546H54.0084C53.9404 51.8756 53.0054 50.8556 51.5774 50.8556C50.2174 50.8556 49.1464 51.9946 49.1124 53.3546ZM56.9255 56.2956C56.9255 54.7826 57.8095 53.9836 60.1045 53.4396C61.7365 53.0316 62.2465 52.7086 62.2465 52.0456C62.2465 51.3146 61.6175 50.8386 60.5975 50.8386C59.4925 50.8386 58.7275 51.4846 58.5065 52.6236L56.8915 52.2836C57.0445 51.3996 57.4525 50.7026 58.1155 50.1756C58.7955 49.6486 59.6285 49.3766 60.5975 49.3766C62.6885 49.3766 63.9805 50.5496 63.9805 52.4536V58.6416H62.4505V57.7746H62.4165C61.9235 58.4716 60.9885 58.8966 59.8835 58.8966C58.0985 58.8966 56.9255 57.8766 56.9255 56.2956ZM62.3315 55.5986V53.8136H62.2975C62.1445 54.2046 61.6175 54.4766 60.5295 54.7656C59.1015 55.1226 58.5575 55.5136 58.5575 56.1936C58.5575 56.9586 59.0845 57.4006 60.0875 57.4006C61.3965 57.4006 62.3315 56.6356 62.3315 55.5986ZM65.9639 58.6416V49.6316H67.5619V50.3456H67.5959C68.0719 49.7506 68.9559 49.3766 69.8399 49.3766C70.7919 49.3766 71.6929 49.8186 72.1689 50.4986H72.2029C72.8319 49.8016 73.6989 49.3766 74.6679 49.3766C76.5039 49.3766 77.8809 50.6516 77.8809 52.4536V58.6416H76.2489V52.7256C76.2489 51.6376 75.5519 50.9236 74.4809 50.9236C73.4099 50.9236 72.7129 51.6886 72.7129 52.8276V58.6416H71.1319V52.7256C71.1319 51.6376 70.4179 50.9236 69.3809 50.9236C68.2929 50.9236 67.5959 51.6886 67.5959 52.8276V58.6416H65.9639ZM79.876 62.4666V49.6316H81.508V50.4646H81.542C82.137 49.8016 83.072 49.3766 84.109 49.3766C86.455 49.3766 88.155 51.3486 88.155 54.1366C88.155 56.9246 86.455 58.8966 84.126 58.8966C83.089 58.8966 82.12 58.4546 81.576 57.8256H81.542V62.4666H79.876ZM86.489 54.1366C86.489 52.1646 85.52 50.9236 83.973 50.9236C82.613 50.9236 81.542 52.0116 81.542 53.3376V54.9186C81.542 56.2616 82.596 57.3496 83.922 57.3496C85.486 57.3496 86.489 56.1086 86.489 54.1366ZM89.7167 55.4966V49.6316H91.3827V55.1906C91.3827 56.6356 92.0457 57.3496 93.4057 57.3496C94.6467 57.3496 95.4627 56.4996 95.4627 55.1906V49.6316H97.1287V58.6416H95.5307V57.8426H95.4797C94.9357 58.5056 93.9497 58.8966 92.9127 58.8966C90.8897 58.8966 89.7167 57.6556 89.7167 55.4966ZM99.2002 58.6416V46.2316H100.866V58.6416H99.2002ZM102.409 55.6156L103.973 55.2756C104.262 56.7886 104.976 57.4176 106.472 57.4176C107.577 57.4176 108.257 56.9926 108.257 56.3126C108.257 55.5136 107.662 55.1736 105.945 54.6466C103.769 54.0346 102.851 53.3716 102.851 51.9946C102.851 50.4986 104.228 49.3766 106.081 49.3766C107.9 49.3766 109.311 50.4136 109.668 52.0456L108.104 52.4536C107.798 51.3826 107.118 50.8556 106.081 50.8556C105.112 50.8556 104.466 51.2976 104.466 51.9606C104.466 52.5216 104.976 52.8106 106.489 53.2356C108.852 53.9326 109.889 54.6806 109.889 56.2446C109.889 57.8596 108.529 58.8966 106.472 58.8966C104.143 58.8966 102.664 57.7236 102.409 55.6156ZM111.112 54.1366C111.112 51.3316 112.829 49.3766 115.294 49.3766C117.742 49.3766 119.374 51.2296 119.374 53.9326V54.6296H112.795C112.812 55.4286 113.05 56.1086 113.509 56.6356C113.968 57.1626 114.563 57.4176 115.294 57.4176C116.433 57.4176 117.113 56.9756 117.861 55.7686L119.153 56.6356C118.354 58.1316 117.028 58.8966 115.311 58.8966C112.812 58.8966 111.112 56.9756 111.112 54.1366ZM112.829 53.3546H117.725C117.657 51.8756 116.722 50.8556 115.294 50.8556C113.934 50.8556 112.863 51.9946 112.829 53.3546ZM125.97 58.6416V46.7416H130.662C133.178 46.7416 134.674 48.1696 134.674 50.4816C134.674 52.8106 133.178 54.2046 130.645 54.2046H127.721V58.6416H125.97ZM127.721 52.5726H130.577C132.141 52.5726 132.923 51.8756 132.923 50.4816C132.923 49.0536 132.158 48.3736 130.594 48.3736H127.721V52.5726ZM136.089 58.6416V49.6316H137.653V50.3796H137.687C138.044 49.8186 138.741 49.4786 139.574 49.4786C139.897 49.4786 140.237 49.5296 140.577 49.6146L140.254 51.2806C139.897 51.1786 139.591 51.1276 139.319 51.1276C138.282 51.1276 137.755 51.8416 137.755 53.4056V58.6416H136.089ZM141.012 54.1366C141.012 51.2976 142.746 49.3766 145.313 49.3766C147.88 49.3766 149.614 51.2976 149.614 54.1366C149.614 56.9756 147.88 58.8966 145.313 58.8966C142.746 58.8966 141.012 56.9756 141.012 54.1366ZM147.948 54.1366C147.948 52.1646 146.945 50.9236 145.313 50.9236C143.681 50.9236 142.678 52.1646 142.678 54.1366C142.678 56.1086 143.681 57.3496 145.313 57.3496C146.945 57.3496 147.948 56.1086 147.948 54.1366Z" fill="#0F2E40"/>
<rect x="15" y="87.084" width="300" height="57.0841" rx="3.80561" fill="white" fill-opacity="0.6"/>
<path d="M25.6831 107.292L27.0971 107.012C27.3071 108.678 28.1331 109.406 29.7711 109.406C31.0031 109.406 31.7871 108.86 31.7871 108.02C31.7871 107.11 31.1991 106.634 29.2811 106.018C26.9291 105.248 26.1451 104.52 26.1451 103.162C26.1451 101.608 27.4611 100.516 29.3371 100.516C30.2751 100.516 31.0731 100.782 31.7311 101.3C32.3891 101.818 32.7811 102.504 32.9351 103.372L31.5351 103.68C31.2271 102.462 30.4991 101.846 29.3371 101.846C28.2591 101.846 27.5731 102.364 27.5731 103.162C27.5731 103.82 28.0911 104.212 29.7571 104.73C32.2911 105.57 33.2151 106.424 33.2151 107.992C33.2151 109.63 31.8011 110.736 29.7431 110.736C27.3771 110.736 25.9491 109.518 25.6831 107.292ZM34.204 106.816C34.204 104.506 35.618 102.896 37.648 102.896C39.664 102.896 41.008 104.422 41.008 106.648V107.222H35.59C35.604 107.88 35.8 108.44 36.178 108.874C36.556 109.308 37.046 109.518 37.648 109.518C38.586 109.518 39.146 109.154 39.762 108.16L40.826 108.874C40.168 110.106 39.076 110.736 37.662 110.736C35.604 110.736 34.204 109.154 34.204 106.816ZM35.618 106.172H39.65C39.594 104.954 38.824 104.114 37.648 104.114C36.528 104.114 35.646 105.052 35.618 106.172ZM42.441 110.526V100.306H43.813V110.526H42.441ZM45.2235 106.816C45.2235 104.506 46.6375 102.896 48.6675 102.896C50.6835 102.896 52.0275 104.422 52.0275 106.648V107.222H46.6095C46.6235 107.88 46.8195 108.44 47.1975 108.874C47.5755 109.308 48.0655 109.518 48.6675 109.518C49.6055 109.518 50.1655 109.154 50.7815 108.16L51.8455 108.874C51.1875 110.106 50.0955 110.736 48.6815 110.736C46.6235 110.736 45.2235 109.154 45.2235 106.816ZM46.6375 106.172H50.6695C50.6135 104.954 49.8435 104.114 48.6675 104.114C47.5475 104.114 46.6655 105.052 46.6375 106.172ZM53.1806 106.816C53.1806 104.492 54.6086 102.896 56.6666 102.896C57.5206 102.896 58.2486 103.148 58.8366 103.638C59.4386 104.128 59.8026 104.786 59.9286 105.612L58.6126 105.878C58.4306 104.8 57.7166 104.17 56.6666 104.17C55.3786 104.17 54.5526 105.192 54.5526 106.816C54.5526 108.44 55.3786 109.462 56.6666 109.462C57.7166 109.462 58.4026 108.86 58.6126 107.754L59.9286 108.02C59.8026 108.846 59.4386 109.518 58.8366 110.008C58.2486 110.498 57.5206 110.736 56.6666 110.736C54.6086 110.736 53.1806 109.14 53.1806 106.816ZM64.8682 104.338H63.0482V108.566C63.0482 109.056 63.2442 109.224 63.8462 109.224H64.5182V110.526H63.7202C62.2222 110.526 61.6762 110.008 61.6762 108.594V104.338H60.5142V103.106H61.6762V101.37H63.0482V103.106H64.8682V104.338ZM71.281 110.526V102.07H68.285V100.726H75.691V102.07H72.723V110.526H71.281ZM74.9735 106.816C74.9735 104.478 76.4015 102.896 78.5155 102.896C80.6295 102.896 82.0575 104.478 82.0575 106.816C82.0575 109.154 80.6295 110.736 78.5155 110.736C76.4015 110.736 74.9735 109.154 74.9735 106.816ZM80.6855 106.816C80.6855 105.192 79.8595 104.17 78.5155 104.17C77.1715 104.17 76.3455 105.192 76.3455 106.816C76.3455 108.44 77.1715 109.462 78.5155 109.462C79.8595 109.462 80.6855 108.44 80.6855 106.816ZM83.484 110.526V100.306H84.856V106.242H84.884L87.754 103.106H89.602L86.872 106.004L89.77 110.526H88.174L85.962 106.956H85.934L84.856 108.132V110.526H83.484ZM90.122 106.816C90.122 104.506 91.536 102.896 93.566 102.896C95.582 102.896 96.926 104.422 96.926 106.648V107.222H91.508C91.522 107.88 91.718 108.44 92.096 108.874C92.474 109.308 92.964 109.518 93.566 109.518C94.504 109.518 95.064 109.154 95.68 108.16L96.744 108.874C96.086 110.106 94.994 110.736 93.58 110.736C91.522 110.736 90.122 109.154 90.122 106.816ZM91.536 106.172H95.568C95.512 104.954 94.742 104.114 93.566 104.114C92.446 104.114 91.564 105.052 91.536 106.172ZM98.359 110.526V103.106H99.675V103.764H99.703C100.151 103.246 100.977 102.896 101.761 102.896C103.455 102.896 104.561 104.002 104.561 105.738V110.526H103.189V105.948C103.189 104.842 102.559 104.17 101.495 104.17C100.431 104.17 99.731 104.884 99.731 105.948V110.526H98.359Z" fill="#032A67"/>
<path d="M26.5411 126.833V118.826H28.2921V126.714C28.2921 128.465 29.1591 129.349 30.8761 129.349C32.6101 129.349 33.4771 128.482 33.4771 126.748V118.826H35.2281V126.833C35.2281 129.485 33.6471 130.981 30.8761 130.981C28.0881 130.981 26.5411 129.485 26.5411 126.833ZM37.0486 126.799L38.7656 126.459C39.0206 128.482 40.0236 129.366 42.0126 129.366C43.5086 129.366 44.4606 128.703 44.4606 127.683C44.4606 126.578 43.7466 126 41.4176 125.252C38.5616 124.317 37.6096 123.433 37.6096 121.784C37.6096 119.897 39.2076 118.571 41.4856 118.571C42.6246 118.571 43.5936 118.894 44.3926 119.523C45.1916 120.152 45.6676 120.985 45.8546 122.039L44.1546 122.413C43.7806 120.934 42.8966 120.186 41.4856 120.186C40.1766 120.186 39.3436 120.815 39.3436 121.784C39.3436 122.583 39.9726 123.059 41.9956 123.688C45.0726 124.708 46.1946 125.745 46.1946 127.649C46.1946 129.638 44.4776 130.981 41.9786 130.981C39.1056 130.981 37.3716 129.502 37.0486 126.799ZM48.0754 130.726V118.826H51.9004C54.9604 118.826 57.0514 121.053 57.0514 124.759C57.0514 128.703 55.0794 130.726 51.8324 130.726H48.0754ZM49.8264 129.094H51.7644C54.1274 129.094 55.3004 127.649 55.3004 124.759C55.3004 121.954 54.0084 120.458 51.8494 120.458H49.8264V129.094ZM58.452 124.776C58.452 121.053 60.475 118.571 63.518 118.571C65.966 118.571 67.819 120.237 68.125 122.753L66.408 123.042C66.085 121.189 65.099 120.203 63.518 120.203C61.461 120.203 60.203 121.937 60.203 124.776C60.203 127.632 61.461 129.349 63.518 129.349C65.201 129.349 66.187 128.295 66.408 126.255L68.159 126.51C68.04 127.887 67.564 128.992 66.731 129.791C65.898 130.59 64.827 130.981 63.518 130.981C60.441 130.981 58.452 128.533 58.452 124.776Z" fill="#0F2E40"/>
<rect x="15" y="159.168" width="300" height="57.0841" rx="3.80561" fill="white" fill-opacity="0.6"/>
<path d="M32.2071 182.611L31.5631 180.777H27.3771L26.7331 182.611H25.2771L28.8051 172.811H30.1491L33.6631 182.611H32.2071ZM27.8111 179.517H31.1291L29.4911 174.799H29.4631L27.8111 179.517ZM34.5387 182.611V175.191H35.8547V175.779H35.8827C36.2747 175.289 37.0027 174.981 37.7307 174.981C38.5147 174.981 39.2567 175.345 39.6487 175.905H39.6767C40.1947 175.331 40.9087 174.981 41.7067 174.981C43.2187 174.981 44.3527 176.031 44.3527 177.515V182.611H43.0087V177.739C43.0087 176.843 42.4347 176.255 41.5527 176.255C40.6707 176.255 40.0967 176.885 40.0967 177.823V182.611H38.7947V177.739C38.7947 176.843 38.2067 176.255 37.3527 176.255C36.4567 176.255 35.8827 176.885 35.8827 177.823V182.611H34.5387ZM45.7157 178.901C45.7157 176.563 47.1437 174.981 49.2577 174.981C51.3717 174.981 52.7997 176.563 52.7997 178.901C52.7997 181.239 51.3717 182.821 49.2577 182.821C47.1437 182.821 45.7157 181.239 45.7157 178.901ZM51.4277 178.901C51.4277 177.277 50.6017 176.255 49.2577 176.255C47.9137 176.255 47.0877 177.277 47.0877 178.901C47.0877 180.525 47.9137 181.547 49.2577 181.547C50.6017 181.547 51.4277 180.525 51.4277 178.901ZM54.0862 180.021V175.191H55.4582V179.769C55.4582 180.959 56.0042 181.547 57.1242 181.547C58.1462 181.547 58.8182 180.847 58.8182 179.769V175.191H60.1902V182.611H58.8742V181.953H58.8322C58.3842 182.499 57.5722 182.821 56.7182 182.821C55.0522 182.821 54.0862 181.799 54.0862 180.021ZM61.8961 182.611V175.191H63.2121V175.849H63.2401C63.6881 175.331 64.5141 174.981 65.2981 174.981C66.9921 174.981 68.0981 176.087 68.0981 177.823V182.611H66.7261V178.033C66.7261 176.927 66.0961 176.255 65.0321 176.255C63.9681 176.255 63.2681 176.969 63.2681 178.033V182.611H61.8961ZM73.3174 176.423H71.4974V180.651C71.4974 181.141 71.6934 181.309 72.2954 181.309H72.9674V182.611H72.1694C70.6714 182.611 70.1254 182.093 70.1254 180.679V176.423H68.9634V175.191H70.1254V173.455H71.4974V175.191H73.3174V176.423Z" fill="#032A67"/>
<path d="M25.9631 199.019L27.5951 198.73C27.8501 200.617 28.7681 201.501 30.4851 201.501C31.9131 201.501 32.8311 200.719 32.8311 199.512C32.8311 198.152 31.9811 197.472 30.2811 197.472H29.3291V196.078H30.2301C31.5391 196.078 32.5251 195.364 32.5251 194.412C32.5251 193.341 31.7261 192.678 30.4171 192.678C29.0401 192.678 28.0711 193.426 27.8671 194.667L26.2351 194.395C26.5241 192.406 28.1561 191.148 30.4171 191.148C32.6441 191.148 34.1911 192.406 34.1911 194.242C34.1911 195.245 33.5791 196.129 32.6271 196.588V196.622C33.7831 197.081 34.4971 198.186 34.4971 199.563C34.4971 201.603 32.8821 203.048 30.4851 203.048C27.9011 203.048 26.2521 201.586 25.9631 199.019ZM36.0731 197.098C36.0731 193.426 37.9941 191.148 40.8501 191.148C43.6891 191.148 45.6441 193.426 45.6441 197.098C45.6441 200.753 43.6891 203.048 40.8501 203.048C38.0281 203.048 36.0731 200.77 36.0731 197.098ZM43.9611 197.098C43.9611 194.31 42.7711 192.695 40.8501 192.695C38.9291 192.695 37.7391 194.31 37.7391 197.098C37.7391 199.886 38.9291 201.501 40.8501 201.501C42.7711 201.501 43.9611 199.886 43.9611 197.098Z" fill="#0F2E40"/>
<path d="M300.683 185.179L292.996 192.866C292.924 192.938 292.84 192.994 292.746 193.033C292.653 193.072 292.553 193.092 292.452 193.092C292.351 193.092 292.251 193.072 292.158 193.033C292.064 192.994 291.98 192.938 291.908 192.866L284.221 185.179C284.077 185.035 283.996 184.84 283.996 184.636C283.996 184.432 284.077 184.236 284.221 184.092C284.366 183.947 284.561 183.866 284.765 183.866C284.969 183.866 285.165 183.947 285.309 184.092L292.452 191.236L299.595 184.092C299.666 184.02 299.751 183.964 299.845 183.925C299.938 183.886 300.038 183.866 300.139 183.866C300.24 183.866 300.34 183.886 300.433 183.925C300.527 183.964 300.611 184.02 300.683 184.092C300.754 184.163 300.811 184.248 300.849 184.341C300.888 184.435 300.908 184.535 300.908 184.636C300.908 184.737 300.888 184.837 300.849 184.93C300.811 185.023 300.754 185.108 300.683 185.179Z" fill="#0F2E40"/>
<rect x="15" y="231.252" width="300" height="50.6975" rx="3.80561" fill="white" fill-opacity="0.6"/>
<path d="M27.3771 251.501L25.4871 241.701H26.9711L28.3711 249.205H28.3991L30.6111 241.701H31.9691L34.1951 249.205H34.2231L35.6231 241.701H37.0931L35.2171 251.501H33.5511L31.3111 243.983H31.2831L29.0291 251.501H27.3771ZM37.7593 249.569C37.7593 248.323 38.4873 247.665 40.3773 247.217C41.7213 246.881 42.1413 246.615 42.1413 246.069C42.1413 245.467 41.6233 245.075 40.7833 245.075C39.8733 245.075 39.2433 245.607 39.0613 246.545L37.7313 246.265C37.8573 245.537 38.1933 244.963 38.7393 244.529C39.2993 244.095 39.9853 243.871 40.7833 243.871C42.5053 243.871 43.5693 244.837 43.5693 246.405V251.501H42.3093V250.787H42.2813C41.8753 251.361 41.1053 251.711 40.1953 251.711C38.7253 251.711 37.7593 250.871 37.7593 249.569ZM42.2113 248.995V247.525H42.1833C42.0573 247.847 41.6233 248.071 40.7273 248.309C39.5513 248.603 39.1033 248.925 39.1033 249.485C39.1033 250.115 39.5373 250.479 40.3633 250.479C41.4413 250.479 42.2113 249.849 42.2113 248.995ZM45.2028 251.501V241.281H46.5748V251.501H45.2028ZM48.2653 251.501V241.281H49.6373V251.501H48.2653ZM51.0478 247.791C51.0478 245.481 52.4618 243.871 54.4918 243.871C56.5078 243.871 57.8518 245.397 57.8518 247.623V248.197H52.4338C52.4478 248.855 52.6438 249.415 53.0218 249.849C53.3998 250.283 53.8898 250.493 54.4918 250.493C55.4298 250.493 55.9898 250.129 56.6058 249.135L57.6698 249.849C57.0118 251.081 55.9198 251.711 54.5058 251.711C52.4478 251.711 51.0478 250.129 51.0478 247.791ZM52.4618 247.147H56.4938C56.4378 245.929 55.6678 245.089 54.4918 245.089C53.3718 245.089 52.4898 246.027 52.4618 247.147ZM62.8721 245.313H61.0521V249.541C61.0521 250.031 61.2481 250.199 61.8501 250.199H62.5221V251.501H61.7241C60.2261 251.501 59.6801 250.983 59.6801 249.569V245.313H58.5181V244.081H59.6801V242.345H61.0521V244.081H62.8721V245.313ZM73.92 251.501L73.276 249.667H69.09L68.446 251.501H66.99L70.518 241.701H71.862L75.376 251.501H73.92ZM69.524 248.407H72.842L71.204 243.689H71.176L69.524 248.407ZM75.6981 247.791C75.6981 245.495 77.0981 243.871 79.0301 243.871C79.8701 243.871 80.6261 244.207 81.1161 244.753H81.1441V241.281H82.5161V251.501H81.2281V250.787H81.2001C80.7381 251.361 79.9261 251.711 79.0161 251.711C77.0981 251.711 75.6981 250.087 75.6981 247.791ZM81.1441 248.435V247.133C81.1441 246.041 80.2621 245.145 79.1421 245.145C77.8681 245.145 77.0701 246.167 77.0701 247.791C77.0701 249.415 77.8961 250.437 79.1841 250.437C80.2761 250.437 81.1441 249.541 81.1441 248.435ZM83.9423 247.791C83.9423 245.495 85.3423 243.871 87.2743 243.871C88.1143 243.871 88.8703 244.207 89.3603 244.753H89.3883V241.281H90.7603V251.501H89.4723V250.787H89.4443C88.9823 251.361 88.1703 251.711 87.2603 251.711C85.3423 251.711 83.9423 250.087 83.9423 247.791ZM89.3883 248.435V247.133C89.3883 246.041 88.5063 245.145 87.3863 245.145C86.1123 245.145 85.3143 246.167 85.3143 247.791C85.3143 249.415 86.1403 250.437 87.4283 250.437C88.5203 250.437 89.3883 249.541 89.3883 248.435ZM92.4664 251.501V244.081H93.7544V244.697H93.7824C94.0764 244.235 94.6504 243.955 95.3364 243.955C95.6024 243.955 95.8824 243.997 96.1624 244.067L95.8964 245.439C95.6024 245.355 95.3504 245.313 95.1264 245.313C94.2724 245.313 93.8384 245.901 93.8384 247.189V251.501H92.4664ZM96.5204 247.791C96.5204 245.481 97.9344 243.871 99.9644 243.871C101.98 243.871 103.324 245.397 103.324 247.623V248.197H97.9064C97.9204 248.855 98.1164 249.415 98.4944 249.849C98.8724 250.283 99.3624 250.493 99.9644 250.493C100.902 250.493 101.462 250.129 102.078 249.135L103.142 249.849C102.484 251.081 101.392 251.711 99.9784 251.711C97.9204 251.711 96.5204 250.129 96.5204 247.791ZM97.9344 247.147H101.966C101.91 245.929 101.14 245.089 99.9644 245.089C98.8444 245.089 97.9624 246.027 97.9344 247.147ZM104.201 249.009L105.489 248.729C105.727 249.975 106.315 250.493 107.547 250.493C108.457 250.493 109.017 250.143 109.017 249.583C109.017 248.925 108.527 248.645 107.113 248.211C105.321 247.707 104.565 247.161 104.565 246.027C104.565 244.795 105.699 243.871 107.225 243.871C108.723 243.871 109.885 244.725 110.179 246.069L108.891 246.405C108.639 245.523 108.079 245.089 107.225 245.089C106.427 245.089 105.895 245.453 105.895 245.999C105.895 246.461 106.315 246.699 107.561 247.049C109.507 247.623 110.361 248.239 110.361 249.527C110.361 250.857 109.241 251.711 107.547 251.711C105.629 251.711 104.411 250.745 104.201 249.009ZM111.091 249.009L112.379 248.729C112.617 249.975 113.205 250.493 114.437 250.493C115.347 250.493 115.907 250.143 115.907 249.583C115.907 248.925 115.417 248.645 114.003 248.211C112.211 247.707 111.455 247.161 111.455 246.027C111.455 244.795 112.589 243.871 114.115 243.871C115.613 243.871 116.775 244.725 117.069 246.069L115.781 246.405C115.529 245.523 114.969 245.089 114.115 245.089C113.317 245.089 112.785 245.453 112.785 245.999C112.785 246.461 113.205 246.699 114.451 247.049C116.397 247.623 117.251 248.239 117.251 249.527C117.251 250.857 116.131 251.711 114.437 251.711C112.519 251.711 111.301 250.745 111.091 249.009Z" fill="#032A67"/>
<path d="M25.9461 265.988C25.9461 262.316 27.8671 260.038 30.7231 260.038C33.5621 260.038 35.5171 262.316 35.5171 265.988C35.5171 269.643 33.5621 271.938 30.7231 271.938C27.9011 271.938 25.9461 269.66 25.9461 265.988ZM33.8341 265.988C33.8341 263.2 32.6441 261.585 30.7231 261.585C28.8021 261.585 27.6121 263.2 27.6121 265.988C27.6121 268.776 28.8021 270.391 30.7231 270.391C32.6441 270.391 33.8341 268.776 33.8341 265.988ZM36.2236 271.7L39.3346 267.127L36.3086 262.69H38.2806L40.3206 265.852H40.3546L42.4286 262.69H44.3836L41.3406 267.127L44.4686 271.7H42.5136L40.3546 268.385H40.3206L38.1786 271.7H36.2236ZM44.6395 267.195C44.6395 264.39 46.3565 262.435 48.8215 262.435C51.2695 262.435 52.9015 264.288 52.9015 266.991V267.688H46.3225C46.3395 268.487 46.5775 269.167 47.0365 269.694C47.4955 270.221 48.0905 270.476 48.8215 270.476C49.9605 270.476 50.6405 270.034 51.3885 268.827L52.6805 269.694C51.8815 271.19 50.5555 271.955 48.8385 271.955C46.3395 271.955 44.6395 270.034 44.6395 267.195ZM46.3565 266.413H51.2525C51.1845 264.934 50.2495 263.914 48.8215 263.914C47.4615 263.914 46.3905 265.053 46.3565 266.413ZM54.9816 271.7V259.8H62.2916V261.432H56.7326V265.257H61.8496V266.804H56.7326V271.7H54.9816ZM72.4021 265.121C72.4021 269.864 71.0421 271.955 67.9651 271.955C65.9931 271.955 64.5651 270.816 64.0381 268.912L65.6361 268.453C66.0441 269.796 66.8091 270.374 67.9651 270.374C69.6821 270.374 70.4981 269.218 70.6171 266.481H70.6001C69.9371 267.28 68.9681 267.671 67.6761 267.671C65.1601 267.671 63.5281 266.056 63.5281 263.608C63.5281 261.245 65.3471 259.545 67.7951 259.545C70.6511 259.545 72.4021 261.517 72.4021 265.121ZM70.4301 263.676C70.4301 262.163 69.3761 261.126 67.8291 261.126C66.2481 261.126 65.2281 262.112 65.2281 263.608C65.2281 265.189 66.2141 266.175 67.8291 266.175C69.3931 266.175 70.4301 265.172 70.4301 263.676ZM74.4552 271.7V259.8H78.2802C81.3402 259.8 83.4312 262.027 83.4312 265.733C83.4312 269.677 81.4592 271.7 78.2122 271.7H74.4552ZM76.2062 270.068H78.1442C80.5072 270.068 81.6802 268.623 81.6802 265.733C81.6802 262.928 80.3882 261.432 78.2292 261.432H76.2062V270.068ZM85.5119 271.7V259.8H90.2719C92.3119 259.8 93.7569 261.075 93.7569 262.911C93.7569 263.999 93.2469 264.883 92.4309 265.291V265.325C93.5189 265.75 94.1989 266.787 94.1989 268.13C94.1989 270.493 92.7199 271.7 89.9149 271.7H85.5119ZM87.2629 264.747H89.9829C91.3259 264.747 92.0059 264.186 92.0059 263.064C92.0059 261.976 91.3259 261.415 89.9829 261.415H87.2629V264.747ZM87.2629 270.085H89.9149C91.6829 270.085 92.4479 269.49 92.4479 268.113C92.4479 266.804 91.6999 266.226 89.9489 266.226H87.2629V270.085ZM97.8677 270.068H104.056V271.7H95.9467V270.374C95.9467 269.371 96.1337 268.589 96.5077 268.028C96.9837 267.28 97.7657 266.685 99.4657 265.852C101.812 264.679 102.475 264.067 102.475 262.945C102.475 261.908 101.574 261.177 100.231 261.177C98.5987 261.177 97.6297 262.129 97.5107 263.846L95.7767 263.71C95.9127 261.126 97.6297 259.545 100.231 259.545C102.509 259.545 104.226 261.007 104.226 262.945C104.226 263.812 103.971 264.56 103.444 265.172C102.917 265.784 102.033 266.396 100.775 267.025C99.8057 267.518 99.1427 267.875 98.8027 268.096C98.4797 268.317 98.2417 268.555 98.1057 268.81C97.9527 269.099 97.8847 269.405 97.8677 270.068ZM105.285 265.75C105.285 261.925 107.24 259.545 110.062 259.545C112.901 259.545 114.856 261.925 114.856 265.75C114.856 269.575 112.901 271.955 110.062 271.955C107.257 271.955 105.285 269.575 105.285 265.75ZM113.105 265.75C113.105 262.826 111.949 261.177 110.062 261.177C108.175 261.177 107.036 262.826 107.036 265.75C107.036 268.674 108.175 270.323 110.062 270.323C111.949 270.323 113.105 268.674 113.105 265.75ZM115.803 268.351C115.803 266.906 116.619 265.733 117.962 265.189V265.155C116.959 264.594 116.449 263.778 116.449 262.724C116.449 260.888 118.098 259.545 120.342 259.545C122.603 259.545 124.218 260.888 124.218 262.724C124.218 263.778 123.708 264.594 122.705 265.155V265.189C124.048 265.733 124.847 266.906 124.847 268.351C124.847 270.459 123.045 271.955 120.342 271.955C117.622 271.955 115.803 270.459 115.803 268.351ZM122.501 262.826C122.501 261.789 121.617 261.075 120.342 261.075C119.05 261.075 118.183 261.789 118.183 262.826C118.183 263.846 119.033 264.526 120.342 264.526C121.617 264.526 122.501 263.846 122.501 262.826ZM123.045 268.198C123.045 266.906 121.991 266.073 120.342 266.073C118.659 266.073 117.622 266.906 117.622 268.198C117.622 269.49 118.642 270.272 120.342 270.272C122.025 270.272 123.045 269.49 123.045 268.198ZM128.139 271.7V261.755L125.436 263.472V261.636L128.309 259.8H129.89V271.7H128.139ZM134.431 271.7V261.755L131.728 263.472V261.636L134.601 259.8H136.182V271.7H134.431ZM138.505 265.75C138.505 261.925 140.46 259.545 143.282 259.545C146.121 259.545 148.076 261.925 148.076 265.75C148.076 269.575 146.121 271.955 143.282 271.955C140.477 271.955 138.505 269.575 138.505 265.75ZM146.325 265.75C146.325 262.826 145.169 261.177 143.282 261.177C141.395 261.177 140.256 262.826 140.256 265.75C140.256 268.674 141.395 270.323 143.282 270.323C145.169 270.323 146.325 268.674 146.325 265.75ZM149.715 271.7L154.407 261.466V261.432H148.372V259.8H156.362V261.296L151.687 271.7H149.715ZM157.115 267.739L158.832 267.433C159.087 269.388 159.971 270.323 161.654 270.323C163.065 270.323 163.966 269.507 163.966 268.266C163.966 266.855 163.133 266.141 161.467 266.141H160.515V264.679H161.416C162.708 264.679 163.66 263.948 163.66 262.945C163.66 261.84 162.861 261.143 161.586 261.143C160.209 261.143 159.291 261.908 159.087 263.217L157.387 262.928C157.676 260.871 159.325 259.545 161.586 259.545C163.83 259.545 165.411 260.871 165.411 262.775C165.411 263.795 164.816 264.747 163.864 265.223V265.257C165.003 265.733 165.717 266.906 165.717 268.317C165.717 270.425 164.051 271.955 161.654 271.955C159.07 271.955 157.438 270.408 157.115 267.739ZM167.972 271.7V259.8H175.282V261.432H169.723V265.257H174.84V266.804H169.723V271.7H167.972ZM176.688 265.75C176.688 261.925 178.643 259.545 181.465 259.545C184.304 259.545 186.259 261.925 186.259 265.75C186.259 269.575 184.304 271.955 181.465 271.955C178.66 271.955 176.688 269.575 176.688 265.75ZM184.508 265.75C184.508 262.826 183.352 261.177 181.465 261.177C179.578 261.177 178.439 262.826 178.439 265.75C178.439 268.674 179.578 270.323 181.465 270.323C183.352 270.323 184.508 268.674 184.508 265.75ZM196.876 267.841C196.876 270.306 195.023 271.955 192.609 271.955C189.481 271.955 187.645 269.626 187.645 265.903C187.645 262.18 189.736 259.545 192.609 259.545C194.7 259.545 196.213 260.701 196.689 262.69L195.057 263.098C194.666 261.721 193.901 261.126 192.66 261.126C190.926 261.126 189.583 262.741 189.447 265.325H189.481C190.11 264.373 191.317 263.778 192.796 263.778C195.125 263.778 196.876 265.495 196.876 267.841ZM195.176 267.824C195.176 266.26 194.122 265.24 192.575 265.24C191.776 265.24 191.113 265.478 190.603 265.971C190.11 266.447 189.855 267.059 189.855 267.824C189.855 269.32 190.943 270.374 192.592 270.374C193.323 270.374 193.935 270.153 194.428 269.694C194.921 269.235 195.176 268.606 195.176 267.824ZM198.104 267.195C198.104 264.39 199.821 262.435 202.286 262.435C204.734 262.435 206.366 264.288 206.366 266.991V267.688H199.787C199.804 268.487 200.042 269.167 200.501 269.694C200.96 270.221 201.555 270.476 202.286 270.476C203.425 270.476 204.105 270.034 204.853 268.827L206.145 269.694C205.346 271.19 204.02 271.955 202.303 271.955C199.804 271.955 198.104 270.034 198.104 267.195ZM199.821 266.413H204.717C204.649 264.934 203.714 263.914 202.286 263.914C200.926 263.914 199.855 265.053 199.821 266.413ZM208.684 271.7L213.41 261.84V261.823H207.307V260.276H215.28V261.721L210.571 271.7H208.684ZM215.519 265.988C215.519 262.316 217.44 260.038 220.296 260.038C223.135 260.038 225.09 262.316 225.09 265.988C225.09 269.643 223.135 271.938 220.296 271.938C217.474 271.938 215.519 269.66 215.519 265.988ZM223.407 265.988C223.407 263.2 222.217 261.585 220.296 261.585C218.375 261.585 217.185 263.2 217.185 265.988C217.185 268.776 218.375 270.391 220.296 270.391C222.217 270.391 223.407 268.776 223.407 265.988ZM234.998 265.393C234.998 269.932 233.638 271.955 230.561 271.955C228.589 271.955 227.161 270.884 226.634 269.048L228.232 268.572C228.64 269.847 229.405 270.391 230.561 270.391C232.278 270.391 233.111 269.303 233.196 266.736H233.179C232.516 267.484 231.547 267.858 230.272 267.858C227.756 267.858 226.124 266.311 226.124 263.931C226.124 261.687 227.943 260.038 230.391 260.038C233.247 260.038 234.998 261.942 234.998 265.393ZM233.026 263.999C233.026 262.554 231.972 261.602 230.425 261.602C228.844 261.602 227.824 262.52 227.824 263.931C227.824 265.427 228.81 266.362 230.425 266.362C231.989 266.362 233.026 265.41 233.026 263.999ZM236.371 267.195C236.371 264.373 238.105 262.435 240.604 262.435C241.641 262.435 242.525 262.741 243.239 263.336C243.97 263.931 244.412 264.73 244.565 265.733L242.967 266.056C242.746 264.747 241.879 263.982 240.604 263.982C239.04 263.982 238.037 265.223 238.037 267.195C238.037 269.167 239.04 270.408 240.604 270.408C241.879 270.408 242.712 269.677 242.967 268.334L244.565 268.657C244.412 269.66 243.97 270.476 243.239 271.071C242.525 271.666 241.641 271.955 240.604 271.955C238.105 271.955 236.371 270.017 236.371 267.195ZM248.434 271.7V262.146L245.714 263.812V262.044L248.587 260.276H250.1V271.7H248.434ZM252.408 267.195C252.408 264.39 254.125 262.435 256.59 262.435C259.038 262.435 260.67 264.288 260.67 266.991V267.688H254.091C254.108 268.487 254.346 269.167 254.805 269.694C255.264 270.221 255.859 270.476 256.59 270.476C257.729 270.476 258.409 270.034 259.157 268.827L260.449 269.694C259.65 271.19 258.324 271.955 256.607 271.955C254.108 271.955 252.408 270.034 252.408 267.195ZM254.125 266.413H259.021C258.953 264.934 258.018 263.914 256.59 263.914C255.23 263.914 254.159 265.053 254.125 266.413ZM262.41 271.7V262.69H264.008V263.489H264.042C264.586 262.86 265.589 262.435 266.541 262.435C268.598 262.435 269.941 263.778 269.941 265.886V271.7H268.275V266.141C268.275 264.798 267.51 263.982 266.218 263.982C264.926 263.982 264.076 264.849 264.076 266.141V271.7H262.41ZM271.583 267.195C271.583 264.407 273.283 262.435 275.629 262.435C276.649 262.435 277.567 262.843 278.162 263.506H278.196V259.29H279.862V271.7H278.298V270.833H278.264C277.703 271.53 276.717 271.955 275.612 271.955C273.283 271.955 271.583 269.983 271.583 267.195ZM278.196 267.977V266.396C278.196 265.07 277.125 263.982 275.765 263.982C274.218 263.982 273.249 265.223 273.249 267.195C273.249 269.167 274.252 270.408 275.816 270.408C277.142 270.408 278.196 269.32 278.196 267.977ZM284.161 271.7V262.146L281.441 263.812V262.044L284.314 260.276H285.827V271.7H284.161ZM288.236 271.7V269.524H290.48V271.7H288.236ZM293.432 271.7V269.524H295.676V271.7H293.432ZM298.629 271.7V269.524H300.873V271.7H298.629Z" fill="#0F2E40"/>
<rect x="15" y="296.95" width="300" height="57.0841" rx="3.80561" fill="white" fill-opacity="0.6"/>
</g>
<defs>
<clipPath id="clip0_6879_2252">
<rect width="330" height="333" rx="8" fill="white"/>
</clipPath>
</defs>
</svg>
